<?xml version="1.0" encoding="UTF-8"?>
<!DOCTYPE svg PUBLIC "-//W3C//DTD SVG 1.1//EN" "http://www.w3.org/Graphics/SVG/1.1/DTD/svg11.dtd">
<!-- Creator: CorelDRAW 2018 (64 Bit) -->
<svg xmlns="http://www.w3.org/2000/svg" xml:space="preserve" width="181.104mm" height="86.2843mm" version="1.1" style="shape-rendering:geometricPrecision; text-rendering:geometricPrecision; image-rendering:optimizeQuality; fill-rule:evenodd; clip-rule:evenodd"
viewBox="0 0 17965.27 8559.27"
 xmlns:xlink="http://www.w3.org/1999/xlink">
 <defs>
  <style type="text/css">
   <![CDATA[
    .fil0 {fill:#334A4A;fill-rule:nonzero}
   ]]>
  </style>
 </defs>
 <g id="Camada_x0020_1">
  <metadata id="CorelCorpID_0Corel-Layer"/>
  <path class="fil0" d="M5616.59 2507.33c-2.55,-90.57 20.73,-169.98 69.85,-238.23 49.11,-68.25 111.3,-119.27 186.56,-153.07 75.26,-33.81 157.22,-52.62 245.87,-56.44 88.65,-3.83 171.89,7.65 249.7,34.44 77.81,26.78 143.83,72.7 198.04,137.77 54.21,65.05 83.87,143.5 88.97,235.35 6.38,98.23 -24.87,184.33 -93.75,258.31 -68.88,73.98 -154.35,122.78 -256.41,146.38 -102.05,23.6 -204.74,30.61 -308.06,21.05 -103.33,-9.57 -191.98,-48.8 -265.96,-117.68 -73.99,-68.88 -112.25,-158.17 -114.81,-267.88zm746.24 -183.7c-16.59,-26.78 -32.21,-50.38 -46.88,-70.8 -14.66,-20.41 -31.56,-41.46 -50.7,-63.14 -19.14,-21.68 -38.59,-38.91 -58.36,-51.66 -19.77,-12.76 -41.46,-23.28 -65.06,-31.57 -23.59,-8.28 -49.1,-11.48 -76.53,-9.56 -27.43,1.91 -55.81,9.25 -85.15,22 -54.85,22.96 -95.03,60.27 -120.55,111.94 -25.51,51.66 -36.99,107.15 -34.44,166.47 2.56,59.31 15.31,118.95 38.27,178.9 38.27,98.22 103.96,175.08 197.09,230.57 93.12,55.49 179.86,62.82 260.23,22 48.47,-24.23 81.96,-66.33 100.45,-126.29 18.5,-59.96 22,-123.73 10.52,-191.34 -11.48,-67.6 -34.44,-130.11 -68.88,-187.51zm748.16 -13.39l0 193.26c0,11.48 -0.32,41.14 -0.96,88.97 -0.63,47.83 -0.63,80.69 0,98.54 0.64,17.86 2.88,43.05 6.7,75.58 3.83,32.53 10.21,57.72 19.14,75.58 8.93,17.87 21.05,31.89 36.36,42.1l22.96 15.31 -296.58 13.39c31.89,-142.87 43.37,-288.29 34.44,-436.27 0,-10.2 -0.95,-37.94 -2.87,-83.23 -1.91,-45.28 -3.83,-76.22 -5.74,-92.8 -1.91,-16.59 -4.78,-40.19 -8.61,-70.8 -3.83,-30.61 -9.25,-53.89 -16.27,-69.85 -7.01,-15.94 -15.62,-27.75 -25.83,-35.39l-32.53 -24.88 290.84 0c-10.2,66.33 -16.58,128.84 -19.13,187.51l38.26 -45.92c3.83,-5.1 16.9,-21.37 39.23,-48.8 22.32,-27.42 37.63,-44.96 45.92,-52.61 8.29,-7.66 22.32,-16.27 42.09,-25.83 19.78,-9.56 40.5,-13.07 62.19,-10.52 20.42,1.28 53.89,8.93 100.46,22.96 46.56,14.03 85.79,19.77 117.68,17.22l34.44 -1.91 -95.68 72.71c-59.96,45.92 -128.84,65.69 -206.65,59.31 -26.78,-5.1 -54.53,-7.33 -83.23,-6.7 -28.71,0.63 -53.89,9.89 -75.59,27.75l-21.04 15.31zm618.04 -442l254.48 -118.63 -13.39 86.1c-40.82,258.95 -61.87,466.88 -63.14,623.77 0,17.87 -0.96,49.43 -2.88,94.71 -1.91,45.28 -2.55,79.73 -1.91,103.33 0.64,23.6 1.91,51.66 3.83,84.2 1.91,32.53 6.7,58.04 14.35,76.53 7.65,18.5 17.86,31.57 30.61,39.22l32.53 17.22 -287.01 22.96c22.96,-190.06 36.36,-376.94 40.19,-560.63 5.1,-154.35 2.55,-310.62 -7.66,-468.79zm1176.75 834.25c3.83,-121.18 5.11,-238.54 3.83,-352.07 0,-7.66 -0.32,-24.24 -0.95,-49.75 -0.64,-25.51 -1.6,-44.65 -2.88,-57.41l-44 -42.1c-40.82,-38.26 -94.4,-61.86 -160.73,-70.79 -66.33,-8.94 -129.16,-3.19 -188.47,17.22 -59.32,20.41 -104.6,61.23 -135.85,122.45 -31.26,61.24 -34.12,135.86 -8.61,223.87 15.31,52.31 43.69,101.42 85.14,147.34 41.46,45.92 87.07,81.96 136.81,108.11 49.75,26.15 101.41,38.27 154.99,36.36 53.58,-1.91 98.86,-21.37 135.85,-58.36l24.87 -24.88zm-1.91 -639.09c-1.27,-40.82 -3.82,-101.73 -7.65,-182.73 -3.83,-81 -6.38,-138.08 -7.66,-171.25 21.68,-5.1 60.6,-14.67 116.73,-28.7 52.3,-15.32 97.58,-31.26 135.85,-47.84 -11.49,57.41 -24.56,160.73 -39.22,309.98 -14.67,149.25 -22.01,255.76 -22.01,319.55 0,25.51 -0.63,69.52 -1.91,132.02 -1.27,62.5 -1.59,110.34 -0.95,143.51 0.63,33.16 2.23,72.4 4.78,117.68 2.55,45.28 7.66,81.31 15.31,108.11 7.66,26.78 17.87,46.55 30.62,59.31l34.44 34.44c-38.27,1.28 -81.64,5.74 -130.12,13.4 -43.37,6.38 -86.74,15.31 -130.11,26.78 0,-17.86 0.32,-43.37 0.95,-76.54 0.63,-33.16 1.6,-58.04 2.87,-74.62l-13.39 11.48c-8.93,7.66 -17.22,15.95 -24.87,24.88l-13.4 11.48c-59.95,54.85 -131.39,90.25 -214.3,106.19 -82.92,15.95 -162.65,9.26 -239.18,-20.09 -76.54,-29.34 -135.22,-78.45 -176.04,-147.33 -48.48,-79.09 -67.93,-158.5 -58.36,-238.23 9.56,-79.73 36.99,-151.49 82.28,-215.26 45.28,-63.78 111.62,-115.76 198.99,-155.95 87.38,-40.18 184.01,-60.27 289.89,-60.27l166.46 0zm-3483.55 4157.75c144.18,-122.91 310.82,-197.37 499.91,-223.37 189.09,-26 351,2.36 485.73,85.09 127.64,78 221.6,189.68 281.87,335.04 60.27,145.37 76.82,295.46 49.64,450.28 -27.19,154.82 -95.14,281.86 -203.87,381.14 -158.36,141.81 -332.09,229.86 -521.18,264.14 -189.09,34.27 -382.92,5.32 -581.46,-86.87l-24.82 -14.18c0,174.91 -4.73,347.45 -14.19,517.64 0,44.91 21.28,83.91 63.82,117l88.63 60.27c-68.55,-2.37 -165.45,2.36 -290.73,14.18 -56.72,7.09 -128.82,20.1 -216.27,39l28.36 -230.46c21.28,-283.64 31.32,-500.51 30.14,-650.59 -1.18,-150.1 -8.86,-345.69 -23.04,-586.78 -14.19,-241.09 -21.27,-401.82 -21.27,-482.18 0,-42.55 -24.82,-93.37 -74.46,-152.46l-63.81 -78 517.64 14.18 -10.63 202.1 0 24.82zm-17.73 1099.1l67.36 42.55c139.46,89.81 292.51,115.81 459.14,78 166.64,-37.81 287.77,-127.64 363.41,-269.45 75.64,-153.64 96.32,-305.5 62.05,-455.6 -34.27,-150.09 -109.32,-280.68 -225.14,-391.77 -73.27,-70.91 -150.09,-123.5 -230.46,-157.78 -80.36,-34.27 -165.45,-39.59 -255.27,-15.95 -89.82,23.63 -167.82,85.09 -234.01,184.36 -4.72,99.28 -7.08,427.82 -7.08,985.65zm1797.56 -1287.01l443.19 -14.19c-35.45,260.01 -53.18,509.37 -53.18,748.11 0,231.63 17.73,476.27 53.18,733.91l-432.55 14.19c40.18,-269.46 56.72,-540.1 49.63,-811.92 -2.36,-200.91 -22.45,-424.27 -60.27,-670.1zm996.28 -439.64l471.55 -219.82 -24.82 159.55c-75.64,479.82 -114.63,865.1 -117,1155.82 0,33.09 -1.77,91.6 -5.32,175.5 -3.54,83.91 -4.72,147.74 -3.54,191.46 1.18,43.73 3.54,95.73 7.09,156 3.54,60.27 12.41,107.54 26.59,141.81 14.19,34.27 33.09,58.51 56.73,72.68l60.27 31.91 -531.82 42.55c42.55,-352.18 67.37,-698.46 74.46,-1038.83 9.45,-286 4.72,-575.55 -14.19,-868.64zm946.64 439.64l443.19 -14.19c-35.45,260.01 -53.18,509.37 -53.18,748.11 0,231.63 17.73,476.27 53.18,733.91l-432.55 14.19c40.18,-269.46 56.72,-540.1 49.63,-811.92 -2.36,-200.91 -22.45,-424.27 -60.27,-670.1zm918.28 744.55c-4.73,-167.82 38.41,-314.96 129.4,-441.41 91,-126.46 206.23,-221 345.69,-283.64 139.45,-62.64 291.33,-97.5 455.6,-104.59 164.27,-7.09 318.5,14.19 462.68,63.82 144.19,49.63 266.51,134.72 366.96,255.27 100.46,120.55 155.41,265.91 164.87,436.1 11.81,182 -46.09,341.55 -173.73,478.64 -127.64,137.09 -286.01,227.5 -475.1,271.23 -189.09,43.73 -379.36,56.73 -570.82,38.99 -191.45,-17.73 -355.73,-90.41 -492.82,-218.04 -137.09,-127.64 -208.01,-293.1 -212.73,-496.37zm1382.74 -340.37c-30.73,-49.64 -59.69,-93.37 -86.87,-131.18 -27.18,-37.82 -58.5,-76.82 -93.95,-117 -35.45,-40.18 -71.5,-72.09 -108.14,-95.73 -36.64,-23.64 -76.82,-43.13 -120.55,-58.5 -43.73,-15.37 -91,-21.28 -141.82,-17.73 -50.82,3.54 -103.4,17.13 -157.78,40.77 -101.64,42.55 -176.09,111.68 -223.37,207.41 -47.27,95.73 -68.55,198.55 -63.81,308.45 4.72,109.91 28.36,220.42 70.91,331.51 70.91,182 192.64,324.41 365.19,427.23 172.55,102.82 333.27,116.41 482.18,40.77 89.81,-44.91 151.86,-122.91 186.14,-234 34.27,-111.09 40.77,-229.28 19.5,-354.55 -21.28,-125.28 -63.82,-241.1 -127.64,-347.46zm2347.11 702.01l-70.91 -10.63c-21.27,-2.37 -52.6,-5.91 -93.95,-10.64 -41.37,-4.72 -71.5,-8.27 -90.41,-10.63 -18.92,-2.36 -44.32,-6.5 -76.23,-12.41 -31.9,-5.9 -61.45,-13 -88.63,-21.27 -27.18,-8.27 -57.32,-18.32 -90.41,-30.14 -153.64,-56.73 -290.73,-139.46 -411.28,-248.18l-74.46 -63.82 0 145.37c0,160.73 5.91,275.37 17.73,343.91 26,134.73 55.55,205.64 88.64,212.73l63.81 17.73 -563.74 46.1 35.46 -49.64c56.72,-78 80.36,-326.18 70.91,-744.55 -2.36,-118.19 -5.91,-212.14 -10.63,-281.86 -4.73,-69.73 -19.5,-145.37 -44.32,-226.92 -24.82,-81.54 -60.87,-142.41 -108.14,-182.58l-31.91 -31.91 535.36 -35.45 28.37 109.9c47.27,174.92 106.36,322.06 177.27,441.41 70.92,119.37 169,233.41 294.28,342.15 151.27,130 294.27,211.54 429,244.63 0,0 4.72,1.18 14.18,3.55 4.73,-85.09 4.73,-219.82 0,-404.18 -2.36,-56.73 -2.95,-114.64 -1.77,-173.74 1.18,-59.09 0.59,-117.59 -1.78,-175.5 -2.36,-57.9 -5.91,-110.5 -10.63,-157.77 -4.73,-47.28 -13.59,-88.64 -26.6,-124.1 -13,-35.45 -30.14,-60.27 -51.4,-74.46l-42.55 -28.36c66.18,4.73 150.09,7.09 251.73,7.09 82.73,0 166.63,-4.73 251.73,-14.19 -49.63,243.46 -78,492.83 -85.09,748.1 -4.72,323.82 4.73,521.19 28.37,592.1l42.55 124.1 -411.28 131.18 24.82 -81.54c21.27,-70.92 31.9,-176.1 31.9,-315.55zm2148.57 -684.28l-1173.56 42.55c0,132.37 34.27,263.55 102.82,393.55 68.55,130 156,223.37 262.37,280.1 82.72,44.91 146.55,78 191.45,99.27 44.91,21.28 101.04,41.96 168.41,62.05 67.37,20.09 131.18,26 191.45,17.73 60.27,-8.27 121.14,-28.96 182.59,-62.05l109.91 -56.72 24.82 31.9 -170.18 95.73c-309.64,165.46 -613.36,198.56 -911.19,99.28 -167.82,-56.73 -294.27,-158.96 -379.36,-306.68 -85.09,-147.73 -117,-309.05 -95.73,-483.96 21.27,-174.91 90.99,-328.55 209.18,-460.92 104,-115.81 232.23,-196.77 384.68,-242.87 152.46,-46.09 296.64,-59.08 432.56,-38.99 135.91,20.09 257.04,62.63 363.41,127.64 106.36,64.99 170.18,140.05 191.45,225.14l46.09 177.27 -131.18 0zm-1170.01 -21.27l840.27 -39 -7.08 -67.37c-11.82,-92.18 -56.73,-164.27 -134.73,-216.27 -78,-52 -167.82,-78 -269.45,-78 -132.37,0 -234.59,37.23 -306.69,111.69 -72.09,74.45 -112.86,170.77 -122.31,288.96zm2896.66 -63.82l-42.55 -92.18c-35.45,-78.01 -96.32,-138.87 -182.59,-182.59 -86.27,-43.73 -161.32,-59.69 -225.13,-47.86 -42.55,9.45 -78,28.96 -106.37,58.5 -28.36,29.54 -43.73,66.77 -46.09,111.68 -7.09,75.64 20.09,146.56 81.54,212.73 61.46,66.19 128.82,117 202.1,152.46 73.27,35.45 160.73,73.28 262.36,113.45 101.64,40.19 165.46,67.37 191.46,81.55 118.19,66.18 172.55,163.09 163.09,290.73 -9.45,141.81 -93.37,255.27 -251.74,340.36 -137.09,75.64 -310.82,113.45 -521.18,113.45 -210.37,0 -419.55,-49.63 -627.55,-148.91l-102.82 -49.64c68.55,-37.81 128.82,-85.09 180.82,-141.81 56.72,-61.45 102.82,-133.55 138.27,-216.27l38.99 109.9c42.55,120.55 127.64,211.55 255.28,273 127.64,61.45 245.82,74.46 354.55,39 61.46,-18.91 101.05,-42.55 118.78,-70.91 17.73,-28.37 28.96,-70.92 33.68,-127.64 4.73,-47.28 -7.09,-91.6 -35.45,-132.96 -28.36,-41.37 -73.28,-79.19 -134.73,-113.46 -61.45,-34.27 -115.23,-60.86 -161.32,-79.77 -46.09,-18.92 -109.32,-43.73 -189.69,-74.46 -4.72,-2.36 -8.86,-4.14 -12.4,-5.32 -3.55,-1.18 -7.69,-2.36 -12.41,-3.55 -4.73,-1.18 -9.46,-2.95 -14.19,-5.32 -118.19,-42.55 -205.64,-94.55 -262.37,-156 -56.72,-61.45 -81.54,-124.68 -74.45,-189.68 7.08,-65 38.41,-129.41 93.95,-193.23 55.55,-63.82 131.78,-122.92 228.68,-177.28 89.82,-49.64 192.64,-82.14 308.46,-97.5 115.82,-15.37 219.82,-17.13 312.01,-5.32 92.18,11.81 164.27,30.73 216.27,56.73l85.09 42.54 -262.37 315.55zm-10351.01 -945.98c1.11,-32.48 6.15,-125.98 15.12,-280.52 3.35,-75.02 1.68,-134.37 -5.04,-178.05 -6.73,-43.68 -22.4,-75.02 -47.04,-94.07 -24.63,-19.04 -47.6,-30.51 -68.86,-34.43 -21.28,-3.92 -56,-6.44 -104.15,-7.56 -77.27,-1.12 -136.63,26.04 -178.05,81.47 -41.44,55.43 -58.79,134.66 -52.08,237.68 4.48,59.36 29.96,116.47 76.43,171.34 46.47,54.88 100.79,92.95 162.93,114.23 62.16,21.28 125.15,19.6 188.97,-5.04l11.76 -5.04zm0 33.6l-3.36 1.68c-48.15,23.52 -98.27,41.71 -150.34,54.59 -52.08,12.89 -104.99,17.36 -158.74,13.44 -53.76,-3.92 -102.18,-16.24 -145.31,-36.95 -43.11,-20.72 -79.79,-55.15 -110.02,-103.31 -30.24,-48.16 -48.15,-108.07 -53.76,-179.74 -6.72,-90.71 17.93,-170.77 73.91,-240.21 55.99,-69.43 136.62,-118.42 241.89,-146.97 105.26,-28.56 220.61,-30.51 346.03,-5.88 57.11,10.08 104.14,7.28 141.1,-8.4l26.87 -11.76 -10.08 43.68c-19.04,86.22 -26.87,184.77 -23.52,295.63 0,11.2 0.57,31.92 1.69,62.16 1.11,30.24 1.95,52.91 2.52,68.03 0.56,15.12 1.68,35.83 3.35,62.15 1.69,26.32 3.92,47.03 6.73,62.15 2.8,15.12 6.15,31.08 10.08,47.87 3.92,16.8 9.24,29.96 15.95,39.48 6.72,9.51 14,15.95 21.83,19.31l33.6 13.44 -199.88 25.2c-3.36,1.12 -8.4,2.52 -15.12,4.2 -6.73,1.68 -11.76,2.8 -15.12,3.36 -3.36,0.56 -7.56,0.28 -12.6,-0.84 -5.04,-1.12 -9.25,-3.36 -12.6,-6.72 -6.73,-4.48 -11.76,-29.68 -15.12,-75.59zm717.25 -508.97c-14.56,0 -35,0 -61.31,0 -26.32,0 -46.75,0.28 -61.31,0.83 -14.55,0.57 -32.47,1.12 -53.75,1.69 -21.28,0.56 -38.64,1.12 -52.08,1.68 -13.43,0.57 -27.43,1.68 -41.99,3.36 -14.56,1.68 -27.16,3.64 -37.79,5.87 -10.63,2.24 -19.31,5.04 -26.04,8.4l-31.91 13.44c33.6,-31.36 59.35,-62.16 77.27,-92.39 17.93,-25.75 31.36,-50.95 40.31,-75.59 17.93,2.24 50.68,5.33 98.27,9.25 47.6,3.92 107.51,8.96 179.74,15.12 72.23,6.16 129.62,10.91 172.18,14.27 55.99,4.48 153.41,4.48 292.27,0l-48.71 25.2c-47.03,24.64 -97.42,41.44 -151.18,50.39 -52.63,7.84 -124.31,12.88 -215.01,15.12 -45.91,11.2 -85.39,31.63 -118.42,61.31 -33.03,29.67 -51.79,64.11 -56.27,103.31 -7.85,64.95 8.96,124.3 50.39,178.05 41.43,53.76 96.86,92.38 166.3,115.9 50.39,16.79 101.62,24.92 153.7,24.35 52.07,-0.56 93.23,-10.91 123.46,-31.07l68.86 -43.68 -65.51 58.79c-51.51,45.91 -117.86,80.34 -199.05,103.31 -81.18,22.95 -161.53,23.8 -241.04,2.52 -73.91,-20.16 -130.47,-56.55 -169.66,-109.19 -39.19,-52.63 -54.87,-111.71 -47.03,-177.22 7.84,-65.51 40.31,-126.82 97.42,-183.93 8.96,-8.96 17.36,-16.79 25.2,-23.51 7.85,-6.73 17.08,-13.44 27.72,-20.16 10.64,-6.73 19.04,-11.76 25.2,-15.12 6.16,-3.36 16.8,-8.96 31.92,-16.8 15.12,-7.84 25.47,-13.43 31.07,-16.79l16.8 -6.72zm1243.02 475.37c1.11,-32.48 6.15,-125.98 15.12,-280.52 3.35,-75.02 1.68,-134.37 -5.04,-178.05 -6.73,-43.68 -22.4,-75.02 -47.04,-94.07 -24.63,-19.04 -47.6,-30.51 -68.86,-34.43 -21.28,-3.92 -56,-6.44 -104.15,-7.56 -77.27,-1.12 -136.63,26.04 -178.05,81.47 -41.44,55.43 -58.79,134.66 -52.08,237.68 4.48,59.36 29.96,116.47 76.43,171.34 46.47,54.88 100.79,92.95 162.93,114.23 62.16,21.28 125.15,19.6 188.97,-5.04l11.76 -5.04zm0 33.6l-3.36 1.68c-48.15,23.52 -98.27,41.71 -150.34,54.59 -52.08,12.89 -104.99,17.36 -158.74,13.44 -53.76,-3.92 -102.18,-16.24 -145.31,-36.95 -43.11,-20.72 -79.79,-55.15 -110.02,-103.31 -30.24,-48.16 -48.15,-108.07 -53.76,-179.74 -6.72,-90.71 17.93,-170.77 73.91,-240.21 55.99,-69.43 136.62,-118.42 241.89,-146.97 105.26,-28.56 220.61,-30.51 346.03,-5.88 57.11,10.08 104.14,7.28 141.1,-8.4l26.87 -11.76 -10.08 43.68c-19.04,86.22 -26.87,184.77 -23.52,295.63 0,11.2 0.57,31.92 1.69,62.16 1.11,30.24 1.95,52.91 2.52,68.03 0.56,15.12 1.68,35.83 3.35,62.15 1.69,26.32 3.92,47.03 6.73,62.15 2.8,15.12 6.15,31.08 10.08,47.87 3.92,16.8 9.24,29.96 15.95,39.48 6.72,9.51 14,15.95 21.83,19.31l33.6 13.44 -199.88 25.2c-3.36,1.12 -8.4,2.52 -15.12,4.2 -6.73,1.68 -11.76,2.8 -15.12,3.36 -3.36,0.56 -7.56,0.28 -12.6,-0.84 -5.04,-1.12 -9.25,-3.36 -12.6,-6.72 -6.73,-4.48 -11.76,-29.68 -15.12,-75.59zm411.53 -831.48l223.4 -104.15 -11.76 75.59c-35.83,227.33 -54.31,409.86 -55.43,547.61 0,15.67 -0.84,43.39 -2.52,83.15 -1.68,39.75 -2.24,69.98 -1.68,90.71 0.56,20.71 1.68,45.35 3.35,73.9 1.69,28.56 5.88,50.96 12.6,67.2 6.73,16.24 15.68,27.72 26.88,34.43l28.55 15.12 -251.96 20.16c20.16,-166.85 31.92,-330.92 35.27,-492.17 4.48,-135.5 2.24,-272.68 -6.72,-411.53zm381.31 561.04c-2.24,-79.51 18.19,-149.21 61.3,-209.13 43.12,-59.91 97.71,-104.7 163.78,-134.38 66.08,-29.67 138.02,-46.19 215.86,-49.55 77.82,-3.36 150.89,6.72 219.21,30.24 68.31,23.52 126.26,63.83 173.85,120.94 47.6,57.11 73.64,125.98 78.11,206.61 5.6,86.23 -21.83,161.81 -82.3,226.77 -60.47,64.96 -135.5,107.79 -225.08,128.5 -89.6,20.71 -179.74,26.87 -270.44,18.48 -90.71,-8.4 -168.54,-42.83 -233.48,-103.31 -64.96,-60.47 -98.55,-138.87 -100.79,-235.17zm655.11 -161.26c-14.56,-23.52 -28.28,-44.23 -41.16,-62.15 -12.88,-17.92 -27.72,-36.4 -44.51,-55.43 -16.8,-19.04 -33.88,-34.15 -51.24,-45.35 -17.36,-11.2 -36.4,-20.43 -57.11,-27.72 -20.72,-7.28 -43.12,-10.08 -67.2,-8.4 -24.08,1.68 -48.99,8.12 -74.75,19.31 -48.15,20.16 -83.43,52.91 -105.82,98.27 -22.4,45.35 -32.48,94.07 -30.24,146.14 2.24,52.08 13.44,104.43 33.6,157.06 33.59,86.22 91.26,153.7 173.01,202.41 81.75,48.71 157.89,55.14 228.44,19.31 42.56,-21.28 71.95,-58.23 88.19,-110.86 16.24,-52.63 19.32,-108.62 9.25,-167.97 -10.08,-59.35 -30.24,-114.23 -60.47,-164.62zm839.87 -215.01l-52.07 21.84c-56,23.51 -89.31,59.35 -99.94,107.5 -10.64,48.15 2.8,96.59 40.31,145.3 37.51,48.72 91.54,85.96 162.09,111.71 185.9,67.19 318.04,132.99 396.43,197.38 78.39,64.39 106.95,126.54 85.67,186.45 -21.28,59.91 -88.47,122.34 -201.57,187.29 -82.87,48.15 -182.26,79.23 -298.16,93.23 -115.9,14 -224.8,4.21 -326.71,-29.39 -101.91,-33.6 -166.85,-90.71 -194.86,-171.34l-23.51 -67.19 211.65 -8.4 11.76 35.27c20.16,61.59 63.55,107.22 130.18,136.9 66.63,29.67 141.94,42.83 225.93,39.47 109.74,-4.48 183.09,-18.19 220.04,-41.16 36.96,-22.95 57.12,-62.43 60.47,-118.42 3.36,-70.55 -27.72,-129.62 -93.23,-177.21 -65.51,-47.6 -153.13,-85.96 -262.88,-115.07 -47.04,-12.31 -94.07,-31.07 -141.1,-56.27 -47.04,-25.2 -87.63,-56 -121.79,-92.39 -34.15,-36.39 -56.55,-73.9 -67.19,-112.54 -10.64,-38.64 -0.29,-79.79 31.07,-123.46 31.36,-43.68 85.67,-83.43 162.94,-119.27l72.23 -33.59c-43.68,-6.73 -102.46,-11.76 -176.37,-15.12 -45.91,-1.12 -107.5,2.8 -184.78,11.76l129.34 -70.55c41.44,-23.52 80.63,-39.19 117.58,-47.03 36.96,-7.84 83.99,-12.32 141.1,-13.44 45.92,-1.12 100.79,1.12 164.62,6.72 63.83,5.6 118.42,10.92 163.78,15.96 45.35,5.04 91.83,5.88 139.41,2.52 47.6,-3.36 86.51,-12.88 116.75,-28.55l52.07 -28.56 0 23.52 -43.67 23.51c-99.66,54.88 -202.69,92.38 -309.07,112.54 -68.32,12.32 -147.83,15.68 -238.53,10.08zm1320.29 603.04c-115.35,109.74 -248.61,152.3 -399.79,127.66 -50.39,-7.84 -90.98,-27.15 -121.78,-57.95 -30.8,-30.79 -52.08,-62.99 -63.83,-96.58 -11.76,-33.6 -16.52,-81.75 -14.27,-144.46 2.23,-62.71 6.16,-112.26 11.76,-148.66 5.59,-36.4 15.12,-90.43 28.56,-162.1 1.12,-7.84 2.23,-14 3.35,-18.47l15.12 -83.99 176.37 -11.76 -47.03 141.1c-15.67,43.67 -25.47,89.31 -29.39,136.89 -3.92,47.6 -1.96,94.91 5.87,141.94 7.85,47.03 27.44,88.74 58.79,125.14 31.36,36.4 72.79,61.31 124.31,74.76 110.86,30.24 190.93,12.88 240.2,-52.08l13.44 -16.79 1.68 -82.3c4.48,-75.03 5.6,-153.98 3.36,-236.85 -2.24,-82.87 -11.2,-141.1 -26.87,-174.7 -5.6,-13.44 -15.12,-24.63 -28.56,-33.6l-35.27 -23.51 263.72 0 -11.76 359.47c-4.48,141.1 -3.36,227.89 3.36,260.37 11.19,49.27 28.55,74.47 52.07,75.59l43.67 5.04 -270.43 20.16 3.36 -124.31zm1127.11 -379.62l-556 20.16c0,62.71 16.24,124.86 48.71,186.45 32.48,61.59 73.91,105.82 124.31,132.7 39.19,21.28 69.43,36.95 90.71,47.03 21.28,10.08 47.87,19.88 79.79,29.4 31.92,9.51 62.16,12.31 90.71,8.39 28.56,-3.92 57.4,-13.72 86.51,-29.39l52.07 -26.87 11.76 15.12 -80.63 45.35c-146.7,78.39 -290.6,94.06 -431.7,47.03 -79.51,-26.87 -139.42,-75.31 -179.74,-145.3 -40.31,-69.99 -55.43,-146.42 -45.35,-229.29 10.08,-82.87 43.12,-155.66 99.11,-218.38 49.27,-54.87 110.02,-93.23 182.26,-115.06 72.23,-21.83 140.53,-27.99 204.92,-18.48 64.39,9.52 121.79,29.68 172.18,60.47 50.39,30.8 80.63,66.35 90.71,106.67l21.83 83.99 -62.15 0zm-554.32 -10.08l398.1 -18.48 -3.36 -31.91c-5.59,-43.68 -26.87,-77.83 -63.82,-102.47 -36.96,-24.63 -79.52,-36.95 -127.67,-36.95 -62.71,0 -111.14,17.64 -145.3,52.91 -34.15,35.27 -53.47,80.91 -57.95,136.9zm1106.96 162.93c-2.24,-79.51 18.19,-149.21 61.3,-209.13 43.12,-59.91 97.71,-104.7 163.78,-134.38 66.08,-29.67 138.02,-46.19 215.86,-49.55 77.82,-3.36 150.89,6.72 219.21,30.24 68.31,23.52 126.26,63.83 173.85,120.94 47.6,57.11 73.64,125.98 78.11,206.61 5.6,86.23 -21.83,161.81 -82.3,226.77 -60.47,64.96 -135.5,107.79 -225.08,128.5 -89.6,20.71 -179.74,26.87 -270.44,18.48 -90.71,-8.4 -168.54,-42.83 -233.48,-103.31 -64.96,-60.47 -98.55,-138.87 -100.79,-235.17zm655.11 -161.26c-14.56,-23.52 -28.28,-44.23 -41.16,-62.15 -12.88,-17.92 -27.72,-36.4 -44.51,-55.43 -16.8,-19.04 -33.88,-34.15 -51.24,-45.35 -17.36,-11.2 -36.4,-20.43 -57.11,-27.72 -20.72,-7.28 -43.12,-10.08 -67.2,-8.4 -24.08,1.68 -48.99,8.12 -74.75,19.31 -48.15,20.16 -83.43,52.91 -105.82,98.27 -22.4,45.35 -32.48,94.07 -30.24,146.14 2.24,52.08 13.44,104.43 33.6,157.06 33.59,86.22 91.26,153.7 173.01,202.41 81.75,48.71 157.89,55.14 228.44,19.31 42.56,-21.28 71.95,-58.23 88.19,-110.86 16.24,-52.63 19.32,-108.62 9.25,-167.97 -10.08,-59.35 -30.24,-114.23 -60.47,-164.62zm675.26 329.23c0,90.71 -14,169.1 -42,235.17 -12.31,26.87 -39.75,72.23 -82.3,136.06 -42.56,63.83 -74.47,108.07 -95.75,132.7 19.04,-73.9 32.48,-189.81 40.31,-347.71 10.08,-286.67 8.96,-477.61 -3.36,-572.79 -13.43,-96.31 -38.07,-147.26 -73.9,-152.86l273.8 0 -3.36 90.71 45.35 -25.2c92.95,-47.03 199.33,-68.86 319.16,-65.51 45.91,1.12 84.26,12.89 115.06,35.27 30.79,22.4 64.11,56.55 99.94,102.47l-226.77 41.99 -6.72 -65.51c-2.24,-29.11 -18.2,-48.43 -47.87,-57.95 -29.68,-9.51 -63.56,-12.03 -101.63,-7.56 -33.59,3.36 -69.71,16.52 -108.34,39.47 -38.63,22.96 -69.15,51.8 -91.54,86.51 -1.12,20.16 -2.24,46.2 -3.36,78.11 -1.12,31.91 -2.8,80.63 -5.04,146.14 -2.24,65.51 -2.8,111.71 -1.68,138.58l520.72 -10.08 -154.54 198.21c0,-44.79 -6.16,-74.47 -18.47,-89.02 -11.2,-13.44 -24.92,-24.92 -41.16,-34.44 -16.24,-9.51 -31.63,-16.52 -46.2,-20.99 -14.55,-4.48 -33.88,-7.85 -57.95,-10.08 -24.08,-2.24 -43.39,-3.36 -57.95,-3.36 -14.55,0 -36.95,0.28 -67.19,0.84 -30.24,0.56 -52.07,0.83 -65.51,0.83l-11.76 0zm-14388.98 1596.04c-37.99,129.2 -98.79,159.59 -182.39,91.19 -144.4,-144.39 -216.6,-391.38 -216.6,-740.96 0,-7.6 19.01,-68.4 57,-182.4 15.2,-60.8 38,-60.8 68.4,0 136.79,220.39 281.19,364.78 433.18,433.18 -98.79,-197.58 -167.19,-383.78 -205.19,-558.57 -30.39,15.2 -72.2,15.2 -125.39,0 -53.2,-15.21 -89.3,-26.61 -108.29,-34.2 -19.01,-7.6 -34.2,-26.6 -45.6,-57 -11.4,-30.39 -17.1,-72.2 -17.1,-125.39 0,-197.59 133,-364.79 398.99,-501.58 7.6,-45.6 57,-119.7 148.19,-222.29 91.19,-102.6 163.39,-157.7 216.59,-165.29l34.19 -57c-53.19,-53.19 -83.59,-94.99 -91.19,-125.39 -37.99,-53.2 -22.8,-76 45.6,-68.4 60.8,7.6 129.2,11.4 205.19,11.4 76,0 144.39,0 205.19,0 -7.61,-60.8 -7.61,-117.8 0,-171 7.6,-45.59 37.99,-49.39 91.19,-11.4 113.99,83.59 212.79,125.4 296.39,125.4 22.8,0 51.3,-1.9 85.5,-5.7 34.19,-3.8 62.69,-5.69 85.49,-5.69 60.8,0 119.69,34.19 176.69,102.59 57,68.4 93.1,136.79 108.29,205.19 60.8,-15.2 114,0 159.59,45.6 45.6,45.59 68.4,98.79 68.4,159.59 0,53.2 -24.69,100.7 -74.09,142.49 -49.4,41.8 -96.9,62.7 -142.5,62.7 15.21,15.2 34.2,34.19 57,57 22.81,22.8 38,41.79 45.6,56.99 22.8,-15.2 43.7,-30.39 62.69,-45.59 19.01,-15.2 32.3,-26.61 39.9,-34.2 76,-60.8 136.79,-49.39 182.4,34.2 159.59,212.79 235.59,414.18 227.99,604.17 -7.6,235.6 -117.8,452.19 -330.59,649.77 121.6,30.4 182.4,102.6 182.4,216.59 0,167.2 -79.8,307.79 -239.39,421.78 -159.6,114 -300.19,163.39 -421.78,148.19 -182.4,159.59 -463.58,189.99 -843.56,91.2 -98.79,68.39 -207.09,83.59 -324.88,45.59 -117.8,-37.99 -176.69,-140.59 -176.69,-307.78 -7.6,-30.4 -3.8,-79.8 11.4,-148.19l-148.19 -136.79zm421.78 -2257.1c7.6,53.2 64.6,89.3 170.99,108.29 106.4,19.01 208.99,17.1 307.79,-5.69l-68.4 -91.19c-220.39,7.6 -357.18,3.8 -410.38,-11.41zm455.98 -170.99c-7.6,114 24.7,199.49 96.9,256.49 72.2,57 146.3,77.9 222.29,62.69 -38,-53.19 -57,-83.59 -57,-91.19 15.2,-15.2 70.29,-19 165.29,-11.4 94.99,7.6 161.5,7.6 199.49,0 -7.6,-22.8 -22.8,-45.6 -45.6,-68.4 -45.59,-30.39 -117.79,-37.99 -216.59,-22.8 -98.79,7.6 -220.39,-34.2 -364.78,-125.4zm615.58 455.98c-45.6,-30.39 -64.6,-53.19 -57,-68.4 7.6,-30.39 22.8,-47.5 45.6,-51.3 22.8,-3.8 41.79,9.5 57,39.9 0,7.6 0,15.2 0,22.81 0,15.2 3.8,26.6 11.4,34.19 22.8,-7.6 37.99,-24.7 45.59,-51.3 7.6,-26.61 -3.8,-51.3 -34.19,-74.1 -30.4,-30.39 -70.3,-39.9 -119.69,-28.5 -49.4,11.41 -74.1,39.9 -74.1,85.5 0,76 41.8,106.4 125.4,91.19zm-193.79 -102.59l11.4 -57c-15.2,-30.39 -37.99,-30.39 -68.4,0 30.4,15.2 49.4,34.2 57,57zm341.99 125.4c0,45.59 15.2,68.4 45.6,68.4 7.6,0 19,-7.6 34.19,-22.81 15.2,-15.2 30.39,-17.09 45.6,-5.69 15.2,11.4 15.2,24.7 0,39.9 -22.81,37.99 -57,53.2 -102.6,45.59 -45.59,-15.2 -68.4,-37.99 -68.4,-68.4 0,-37.99 -34.19,-41.79 -102.59,-11.4 -60.8,30.4 -125.4,11.4 -193.79,-56.99 -83.59,-68.4 -136.79,-102.6 -159.59,-102.6 -53.2,0 -83.59,22.8 -91.19,68.4 0,38 0,60.8 0,68.4 0,7.6 13.29,24.7 39.9,51.3 26.6,26.61 43.7,43.7 51.3,51.3 53.2,68.4 98.79,114 136.79,136.79 37.99,30.4 83.59,49.4 136.79,57 -7.6,-45.59 -45.6,-110.19 -114,-193.79 -30.39,-30.39 -39.9,-56.99 -28.5,-79.8 11.4,-22.8 39.9,-19 85.5,11.4 197.59,114 315.38,171 353.38,171 22.8,0 49.4,-15.2 79.8,-45.6 30.39,-30.39 45.6,-60.8 45.6,-91.19 0,-98.79 -34.2,-148.19 -102.6,-148.19 -60.8,0 -91.19,19 -91.19,57zm-649.77 -22.81c0,-7.6 5.69,-20.89 17.1,-39.9 11.4,-19 13.29,-36.1 5.69,-51.3 -30.39,-22.8 -60.8,-34.19 -91.19,-34.19 -235.59,0 -364.78,83.59 -387.58,250.78 15.2,0 74.09,-22.8 176.68,-68.4 102.6,-45.59 195.7,-64.6 279.29,-57zm-284.99 296.4c-15.2,-38 -15.2,-91.2 0,-159.6 -22.8,7.6 -60.8,20.9 -114,39.9 -53.19,19.01 -91.19,28.5 -113.99,28.5l-11.4 -11.4c-15.21,-7.6 -26.61,-7.6 -34.2,0 -7.6,0 -11.4,11.4 -11.4,34.2 0,7.6 11.4,11.4 34.19,11.4 15.21,7.6 26.61,11.4 34.2,11.4 45.6,7.6 117.8,22.8 216.59,45.6zm319.18 -193.79c-45.59,-38 -94.99,-47.5 -148.19,-28.5 -53.19,19 -87.39,49.4 -102.59,91.19 -15.2,41.8 -11.4,77.9 11.4,108.29 76,-98.79 155.79,-155.79 239.39,-170.99zm-227.99 239.39c182.4,0 322.99,17.1 421.78,51.3 98.79,34.2 216.59,119.7 353.38,256.49l79.8 -79.8c-37.99,-76 -87.39,-129.19 -148.19,-159.59 -30.39,15.2 -49.4,22.8 -57,22.8 -91.19,-30.39 -174.79,-81.69 -250.78,-153.89 -76,-72.2 -121.6,-115.89 -136.79,-131.1 -38,7.61 -77.9,26.61 -119.69,57 -41.8,30.4 -77.9,60.8 -108.29,91.2l-34.2 45.59zm809.36 364.78c45.6,60.8 72.2,106.4 79.81,136.79l68.4 -45.59c0,-60.8 -22.81,-117.8 -68.4,-171 -38,30.4 -64.6,57 -79.81,79.8zm-148.19 -455.98c303.99,250.78 414.18,520.57 330.59,809.36 98.79,-76 119.69,-203.29 62.69,-381.88 -56.99,-178.59 -188.09,-321.09 -393.28,-427.48zm-1322.34 11.4l193.79 -22.8c121.59,-144.39 212.79,-243.2 273.58,-296.39 38,-30.4 34.2,-49.4 -11.4,-57 -22.8,-7.6 -45.59,-7.6 -68.4,0 -197.58,113.99 -326.78,239.39 -387.58,376.18zm433.18 193.79c38,-45.6 76,-72.2 114,-79.8 -106.4,-53.2 -212.79,-79.8 -319.19,-79.8 -136.79,0 -281.19,47.5 -433.18,142.49 -151.99,94.99 -227.99,218.49 -227.99,370.49 0,106.39 83.59,159.59 250.78,159.59l-22.8 -57c-83.59,-7.6 -125.4,-41.79 -125.4,-102.59 0,-98.8 51.31,-195.7 153.9,-290.69 102.59,-94.99 218.49,-142.49 347.68,-142.49 91.2,0 178.6,26.6 262.19,79.8zm-615.58 170.99c-76,45.6 -113.99,98.8 -113.99,159.59 7.6,53.2 41.79,68.4 102.59,45.6 -7.6,-30.39 -7.6,-70.29 0,-119.69 7.6,-49.4 11.4,-77.9 11.4,-85.5zm364.79 -193.79c-68.4,114 -91.2,246.99 -68.4,398.99l79.8 -11.4c22.8,-106.4 87.39,-212.79 193.78,-319.19 -30.39,-45.59 -98.79,-68.4 -205.18,-68.4zm478.77 262.19c22.81,45.6 53.2,170.99 91.19,376.18l68.4 0c-15.2,-30.39 -28.49,-96.9 -39.9,-199.49 -11.4,-102.59 -28.5,-165.29 -51.3,-188.09l-68.4 11.4zm-45.59 79.8l-11.41 -57c-45.59,7.61 -72.2,30.4 -79.8,68.4 30.4,15.21 60.8,11.41 91.2,-11.4zm56.99 182.4c-37.99,0 -72.2,15.2 -102.59,45.59 30.39,30.4 68.4,53.2 114,68.4 0,-53.19 -3.81,-91.19 -11.41,-113.99zm182.4 -22.81c0,15.21 0,28.5 0,39.9 0,11.41 1.89,24.7 5.69,39.91 3.81,15.2 5.7,30.39 5.7,45.59 30.39,-7.6 60.8,-26.6 91.19,-57 -30.39,-45.59 -64.6,-68.4 -102.59,-68.4zm262.19 -56.99l45.59 -45.6c-151.99,-114 -265.99,-167.19 -341.99,-159.59 -45.59,15.2 -45.59,34.19 0,57 53.2,7.6 152,56.99 296.4,148.19zm45.59 45.59c60.8,60.8 98.8,125.4 114,193.79l45.59 -57c-45.59,-91.19 -87.39,-148.19 -125.39,-170.99 -30.4,0 -41.8,11.4 -34.2,34.19zm-889.16 -102.59l182.39 0c45.6,-106.4 91.2,-167.19 136.79,-182.4 45.6,-15.2 106.4,-22.8 182.4,-22.8 220.39,0 393.28,93.1 518.68,279.28 125.39,186.2 184.29,404.69 176.68,655.47l171 -125.4c-76,-676.37 -364.78,-1014.55 -866.36,-1014.55 -250.79,0 -417.98,136.79 -501.58,410.38zm-353.38 -319.19c-60.8,159.6 -72.2,326.79 -34.2,501.58 38,174.8 85.5,324.88 142.5,450.28 57,125.4 100.7,199.49 131.09,222.29 60.8,-98.8 95,-151.99 102.6,-159.59 -53.2,-98.8 -110.2,-269.79 -171,-512.99 -60.8,-243.19 -60.8,-425.58 0,-547.17 -45.59,-30.4 -102.59,-15.2 -170.99,45.59zm216.59 398.99l0 57c91.19,7.6 178.59,5.69 262.19,-5.7 83.59,-11.4 144.39,-24.7 182.39,-39.9 38,-15.2 60.8,-26.6 68.4,-34.19 -38,-30.4 -208.99,-22.81 -512.98,22.8zm706.77 -68.4c220.39,121.6 330.58,300.18 330.58,535.77 15.21,7.61 45.6,0 91.2,-22.8 7.6,-91.19 -28.5,-201.39 -108.29,-330.58 -79.81,-129.2 -184.29,-189.99 -313.49,-182.4zm-547.18 193.79c60.8,144.39 176.69,241.29 347.68,290.68 171,49.4 324.88,13.3 461.68,-108.29l-91.19 -148.19c-220.39,114 -395.18,94.99 -524.37,-57l-193.79 22.81zm683.97 341.98c15.2,15.21 34.19,22.81 56.99,22.81 22.81,0 41.8,0 57,0l22.81 -11.4 0 -79.8c-30.4,30.39 -76.01,53.19 -136.79,68.39zm319.18 -193.78l11.4 125.4c15.2,0 34.2,-7.61 57,-22.81l-22.8 -136.79 -45.6 34.2zm376.18 0c15.21,68.4 22.81,129.2 22.81,182.39 68.4,-53.19 119.69,-129.19 153.89,-227.99 34.2,-98.79 32.3,-189.99 -5.69,-273.59 -30.4,-68.4 -53.2,-64.6 -68.4,11.4 -7.6,68.4 -41.8,171 -102.6,307.79zm102.6 -444.58c106.39,37.99 159.59,121.59 159.59,250.78 0,167.19 -76,321.09 -227.99,461.68 -151.99,140.59 -296.39,226.09 -433.18,256.49l-79.8 182.4c250.78,-60.8 463.57,-169.09 638.37,-324.88 174.79,-155.8 262.18,-347.69 262.18,-575.68 0,-144.39 -68.4,-326.78 -205.19,-547.18 -30.39,-53.19 -68.4,-68.4 -113.99,-45.59 -45.6,37.99 -76,72.2 -91.2,102.59 60.8,91.19 91.2,171 91.2,239.4zm-387.59 626.96c-205.18,98.8 -372.38,110.2 -501.58,34.2 -15.2,-7.6 -32.3,-5.7 -51.3,5.69 -19,11.41 -13.3,28.5 17.1,51.31 83.59,60.79 178.59,83.59 284.99,68.4 106.39,-15.21 189.99,-68.4 250.78,-159.6zm22.81 216.59c-7.6,-60.8 -15.21,-106.39 -22.81,-136.79 -15.2,30.4 -41.79,57 -79.8,79.81 -7.6,53.19 -11.4,91.19 -11.4,113.99 53.2,-15.2 91.19,-34.19 114,-57zm-1117.15 -102.59c22.8,-22.8 64.6,-49.4 125.4,-79.8 83.59,-45.6 155.79,-30.4 216.59,45.59 22.8,22.81 64.6,106.4 125.4,250.79 129.19,15.2 227.99,3.8 296.39,-34.2 22.8,-7.6 32.3,-20.89 28.5,-39.9 -3.8,-19 -17.1,-28.5 -39.9,-28.5 -106.4,-15.2 -186.2,-49.39 -239.4,-102.59 -7.6,-7.6 -15.2,-22.8 -22.8,-45.6 -7.6,-22.8 -19,-37.99 -34.2,-45.59 -15.2,-7.6 -30.39,-11.4 -45.59,-11.4 -15.2,0 -30.4,0 -45.6,0 -174.79,-30.4 -303.98,-125.4 -387.58,-284.99 -22.81,-38 -60.8,-57 -114,-57 53.2,212.79 98.8,357.18 136.79,433.18zm114 193.79l-79.8 113.99c151.99,91.19 360.98,136.79 626.96,136.79 53.2,-83.59 83.59,-140.59 91.2,-170.99 -250.79,30.39 -463.58,3.8 -638.37,-79.8zm501.58 387.58c7.6,15.2 22.8,30.39 45.59,45.6 38,-30.4 93.1,-104.5 165.29,-222.29 72.2,-117.8 112.09,-218.49 119.69,-302.09 -22.8,-7.6 -45.59,-7.6 -68.4,0 -30.39,174.8 -117.79,334.39 -262.18,478.78zm763.76 -91.19c-7.6,60.8 -41.79,151.99 -102.59,273.59 113.99,-45.6 182.39,-129.2 205.19,-250.79l-102.6 -22.8zm0 307.78c182.4,-129.2 273.59,-269.79 273.59,-421.78 7.6,-53.2 -7.6,-91.19 -45.59,-113.99 -38,-22.81 -76.01,-26.61 -114,-11.41 -22.8,15.21 -41.8,43.71 -57,85.5 -15.2,41.8 -19,74.1 -11.4,96.9 22.8,30.39 60.8,22.8 114,-22.8l34.19 11.4c0,91.19 -64.6,216.59 -193.79,376.18zm-205.19 -410.38c-22.8,144.39 -102.59,275.49 -239.39,393.28 -136.79,117.8 -311.58,153.9 -524.37,108.29l-125.4 114c273.59,98.79 507.28,83.59 701.07,-45.6 193.79,-129.2 317.29,-345.79 370.49,-649.77l-182.4 79.8zm-455.98 284.99c7.6,15.2 32.3,34.2 74.1,57 41.79,22.8 66.49,38 74.09,45.6 45.6,-30.4 89.3,-74.1 131.1,-131.1 41.79,-56.99 70.29,-108.29 85.49,-153.89l34.2 -68.4c-76,45.59 -167.2,68.4 -273.59,68.4 -22.8,30.39 -64.6,91.19 -125.4,182.39zm-102.59 171c-30.4,-22.81 -49.4,-45.6 -57,-68.4 -22.8,30.39 -41.8,49.39 -57,57l114 11.4zm-159.6 -159.6c-174.79,174.8 -334.38,269.79 -478.77,284.99 -114,15.21 -159.59,-53.19 -136.79,-205.18l-91.19 -68.4c-7.61,144.39 13.29,245.09 62.69,302.08 49.4,57 117.8,74.1 205.19,51.31 87.39,-22.81 174.79,-62.7 262.18,-119.7 87.4,-56.99 165.29,-119.69 233.69,-188.09l-57 -57zm-569.96 125.4c0,91.19 41.79,121.6 125.39,91.19l-125.39 -91.19zm-205.19 -455.98l91.19 68.4 57 -159.59c-53.2,83.59 -102.6,113.99 -148.19,91.19zm136.79 102.59l68.4 57c76,-258.39 167.19,-406.58 273.58,-444.58 60.8,-15.2 106.4,26.6 136.79,125.4l102.6 11.4c-106.4,-212.79 -207.1,-283.09 -302.09,-210.9 -94.99,72.2 -188.09,226.09 -279.28,461.68zm182.39 -79.8c-22.8,30.4 -49.4,91.19 -79.8,182.4 129.2,106.39 246.98,178.59 353.38,216.59 53.2,-22.81 106.39,-76 159.59,-159.6 -45.59,-45.59 -64.6,-87.39 -57,-125.39 -68.4,-15.2 -193.78,-53.2 -376.18,-114zm797.96 433.18c-151.99,-106.39 -258.38,-208.99 -319.18,-307.78 -15.2,-7.6 -30.4,-11.4 -45.6,-11.4 0,91.19 83.59,197.58 250.79,319.18 37.99,15.2 76,15.2 113.99,0zm-1253.94 -490.18c68.4,197.59 231.79,372.39 490.18,524.38 53.19,30.39 94.99,30.39 125.39,0 22.81,-30.4 15.21,-57 -22.8,-79.8 -167.19,-106.4 -364.78,-254.59 -592.77,-444.59zm-102.6 -91.19c-15.2,-30.39 -17.09,-49.4 -5.69,-57 11.4,-7.6 28.5,0 51.3,22.81 15.2,7.6 32.3,20.89 51.3,39.9 19,19 36.1,34.19 51.3,45.59 15.21,11.4 30.4,17.1 45.6,17.1 45.6,0 76,-7.6 91.19,-22.8 15.2,-15.2 20.9,-30.4 17.1,-45.6 -3.8,-15.2 -17.1,-30.39 -39.9,-45.6 -136.79,-98.79 -273.59,-243.19 -410.38,-433.18 -37.99,-60.79 -60.8,-53.19 -68.4,22.81 -7.6,22.8 -11.4,57 -11.4,102.59 0,129.2 17.1,260.29 51.3,393.28 34.2,133 70.3,214.7 108.29,245.09 60.8,38 100.7,47.5 119.7,28.5 19,-19 24.69,-47.5 17.09,-85.5 -7.6,-37.99 -30.39,-113.99 -68.4,-227.99zm-398.98 -569.97c0,440.78 136.79,830.26 410.37,1168.45 273.59,338.19 611.78,511.08 1014.56,518.68 425.58,7.6 780.86,-171 1065.85,-535.78 284.99,-364.78 419.88,-778.97 404.68,-1242.54 -22.8,-448.38 -176.69,-834.06 -461.68,-1157.05 -284.99,-322.98 -632.67,-476.88 -1043.05,-461.68 -395.18,15.2 -725.77,199.5 -991.76,552.87 -265.98,353.38 -398.98,739.07 -398.98,1157.05zm1424.94 -2496.49c683.96,-7.6 1269.14,233.69 1755.52,723.87 486.38,490.18 729.57,1077.25 729.57,1761.22 -7.6,683.97 -258.38,1269.15 -752.36,1755.52 -493.98,486.38 -1082.95,721.98 -1766.92,706.77 -668.77,-22.8 -1233.05,-277.39 -1692.82,-763.76 -459.78,-486.38 -685.87,-1067.75 -678.27,-1744.13 7.6,-668.77 243.19,-1240.64 706.77,-1715.62 463.57,-474.98 1029.75,-716.27 1698.53,-723.87zm2979.64 -630.84c-4.3,-8.6 -10.74,-19.34 -19.34,-32.24 -8.6,-12.9 -18.27,-32.24 -29.02,-58.04 -10.75,-25.79 -16.13,-45.14 -16.13,-58.03l154.77 77.38c8.6,-21.5 23.64,-38.7 45.14,-51.59 -4.3,-55.89 -2.15,-90.28 6.45,-103.18l148.32 116.07c17.19,-17.19 32.24,-17.19 45.14,0 146.17,94.58 247.19,141.87 303.08,141.87 21.49,0 60.18,-4.31 116.07,-12.91 55.88,-8.59 113.92,-12.9 174.1,-12.9 94.58,0 154.77,60.18 180.56,180.56 34.39,0 64.48,15.05 90.28,45.14 38.69,38.7 51.58,77.38 38.69,116.07 -34.39,107.48 -83.83,182.71 -148.31,225.7 133.26,68.78 199.89,133.27 199.89,193.46 0,103.18 -73.08,182.7 -219.25,238.59 -12.9,98.88 -25.79,161.22 -38.69,187.01 163.36,184.86 245.04,352.51 245.04,502.98 0,103.18 -26.86,214.95 -80.6,335.32 -53.75,120.38 -117.15,217.1 -190.23,290.19 -154.77,154.76 -303.08,269.76 -444.94,344.99 -141.86,75.23 -313.82,112.85 -515.88,112.85 -374.01,0 -689.99,-137.57 -947.92,-412.71 -257.94,-275.14 -386.9,-601.86 -386.9,-980.17 0,-365.41 123.59,-679.23 370.78,-941.47 247.19,-262.23 553.49,-410.55 918.91,-444.94zm309.53 -12.9c0,-17.19 -17.2,-38.69 -51.59,-64.48 -34.39,-25.8 -62.34,-42.99 -83.82,-51.59 4.3,25.79 18.26,51.59 41.91,77.38 23.64,25.79 54.81,38.69 93.5,38.69zm64.48 135.42l-38.69 -77.37c-94.58,-51.59 -152.62,-77.38 -174.11,-77.38 38.7,81.68 109.62,133.26 212.8,154.76zm64.49 64.49c-21.5,-17.2 -70.94,-32.24 -148.31,-45.15 42.98,34.39 92.42,49.44 148.31,45.15zm-96.73 32.24c-51.58,-25.79 -88.13,-58.03 -109.62,-96.73 -30.1,-8.59 -74.16,-12.9 -132.19,-12.9 -58.04,0 -95.66,6.45 -112.85,19.34 30.09,30.1 87.06,54.82 170.88,74.16 83.83,19.34 145.1,24.72 183.79,16.12zm-148.31 -128.97l-38.7 -64.49c-60.18,-42.98 -103.18,-66.63 -128.97,-70.93 17.2,81.68 73.09,126.82 167.67,135.42zm141.86 -135.42c21.5,154.76 118.22,232.14 290.18,232.14 34.39,0 79.54,-6.45 135.43,-19.34 55.89,-12.9 98.87,-19.34 128.97,-19.34 42.99,0 92.42,27.93 148.31,83.82 17.2,-38.69 6.45,-85.98 -32.24,-141.86 -30.1,-30.1 -75.23,-45.14 -135.42,-45.14 -25.8,0 -60.19,5.37 -103.18,16.12 -42.99,10.74 -79.54,16.12 -109.62,16.12 -38.7,0 -79.54,-7.52 -122.52,-22.57 -42.99,-15.05 -84.9,-34.39 -125.74,-58.04 -40.84,-23.64 -65.56,-37.62 -74.16,-41.91zm561.02 232.14c-55.89,0 -83.83,17.19 -83.83,51.58 0,17.2 12.9,34.39 38.69,51.59 25.8,17.19 49.44,25.79 70.94,25.79 34.39,0 58.04,-17.19 70.94,-51.58 4.3,-21.5 -4.31,-39.77 -25.79,-54.82 -21.5,-15.05 -45.15,-22.57 -70.94,-22.57zm32.24 45.14c17.2,0 25.79,10.75 25.79,32.25 0,17.19 -8.59,25.79 -25.79,25.79 -21.5,0 -32.24,-8.6 -32.24,-25.79 0,-21.5 10.74,-32.25 32.24,-32.25zm25.79 135.42c47.29,34.39 96.73,51.59 148.32,51.59 68.78,0 103.18,-27.94 103.18,-83.83 0,-73.08 -32.25,-109.62 -96.73,-109.62 -25.79,0 -38.7,17.2 -38.7,51.59 0,25.79 10.75,38.69 32.25,38.69 4.3,0 23.64,-8.6 58.03,-25.79 0,38.69 -12.9,58.03 -38.69,58.03 -38.69,0 -70.94,-15.04 -96.73,-45.14l-70.94 64.48zm-567.46 -51.58l12.9 -58.03c-98.87,-21.5 -161.21,-8.6 -187,38.69 60.18,0 118.22,6.45 174.1,19.34zm-245.04 -12.9c12.9,-17.2 27.94,-32.24 45.15,-45.14 -30.1,-21.5 -65.56,-22.58 -106.4,-3.23 -40.84,19.35 -59.11,52.66 -54.82,99.95 51.59,-34.39 90.28,-51.58 116.07,-51.58zm438.5 264.38c-47.29,-77.37 -88.13,-131.12 -122.52,-161.21 -34.39,-30.1 -83.83,-47.29 -148.31,-51.59 -90.28,-8.59 -184.86,10.75 -283.74,58.04 -17.19,4.3 -21.5,12.9 -12.9,25.79l25.79 6.45c64.49,-21.5 118.22,-32.24 161.22,-32.24 116.07,-8.6 242.89,42.99 380.46,154.76zm580.36 -116.07c-77.37,0 -124.67,-4.3 -141.86,-12.9 -60.18,-25.79 -128.97,-62.34 -206.35,-109.62 -77.38,-47.29 -148.31,-81.68 -212.8,-103.18 -34.39,-8.6 -66.63,-10.74 -96.73,-6.45 -30.09,4.31 -49.43,15.05 -58.03,32.24 -8.6,17.2 -6.45,38.7 6.45,64.49 68.78,107.47 135.42,180.56 199.9,219.25 8.59,8.6 23.64,10.74 45.14,6.45 25.79,-8.6 27.94,-23.65 6.45,-45.14 -25.79,-30.1 -55.89,-60.19 -90.28,-90.28 -34.39,-30.1 -62.34,-58.04 -83.82,-83.83 -21.5,-25.79 -12.9,-40.84 25.79,-45.14 12.9,0 27.94,2.14 45.14,6.45 55.89,21.5 120.38,59.11 193.46,112.85 73.08,53.74 124.67,89.2 154.76,106.4 60.19,30.09 107.48,34.39 141.87,12.9 34.39,-21.5 58.03,-42.99 70.93,-64.49zm-270.83 83.83c-25.79,-25.79 -62.34,-54.82 -109.62,-87.06 -47.29,-32.24 -83.83,-48.36 -109.62,-48.36 8.6,8.6 22.57,23.64 41.91,45.14 19.34,21.5 35.47,39.77 48.37,54.82 12.9,15.04 21.5,26.86 25.79,35.46 8.6,0 19.34,0 32.24,0 12.9,0 25.79,0 38.7,0 12.9,0 23.64,0 32.24,0zm-1076.9 103.18l116.07 6.45c81.68,-68.78 195.61,-103.18 341.77,-103.18 60.19,0 112.85,20.42 157.99,61.26 45.14,40.84 67.7,91.35 67.7,151.54 0,12.9 -4.3,53.74 -12.9,122.52l83.83 38.69c17.19,-51.58 25.79,-105.32 25.79,-161.21 0,-90.28 -39.76,-163.36 -119.3,-219.25 -79.53,-55.89 -173.03,-83.83 -280.5,-83.83 -116.07,0 -242.9,62.34 -380.47,187.01zm393.36 83.83l187 -83.83c-38.69,-38.69 -96.72,-56.96 -174.1,-54.82 -77.38,2.15 -141.86,22.58 -193.46,61.26l180.56 77.38zm167.66 103.18c25.79,12.9 42.99,23.64 51.59,32.24l12.9 -45.15 -64.49 12.91zm245.04 -199.9l19.35 77.37c98.87,-21.49 185.93,-32.24 261.16,-32.24 75.23,0 149.39,23.65 222.47,70.94 34.39,21.5 42.99,47.29 25.79,77.37 -4.3,12.91 -16.12,22.58 -35.46,29.03 -19.34,6.45 -31.17,11.81 -35.47,16.12l-6.45 96.73c60.19,-21.5 111.78,-62.34 154.77,-122.52 42.99,-51.59 30.09,-103.18 -38.7,-154.77 -68.77,-51.58 -141.86,-81.68 -219.24,-90.28 -159.06,-8.59 -275.14,2.15 -348.23,32.25zm425.6 135.42c12.9,25.79 19.34,45.14 19.34,58.03 25.8,0 38.7,-10.74 38.7,-32.24 0,-12.9 -19.34,-21.5 -58.04,-25.79zm-128.97 -32.24c17.2,42.98 27.94,110.7 32.24,203.12 4.31,92.43 0,151.55 -12.9,177.34l58.04 38.69c21.5,-55.88 32.24,-131.11 32.24,-225.7 0,-94.58 -17.19,-159.05 -51.58,-193.45l-58.04 0zm-309.53 206.34l128.97 51.59c4.31,-8.6 29.03,-27.94 74.16,-58.04 45.15,-30.09 76.3,-47.29 93.5,-51.58 8.6,-68.78 -8.6,-120.37 -51.59,-154.76 -107.47,0 -178.4,10.74 -212.79,32.24 -17.2,107.47 -27.94,167.66 -32.25,180.55zm70.94 90.28l-348.22 -180.55 -109.62 64.48 393.35 167.67 64.49 -51.59zm-232.14 -341.77c-73.08,8.6 -165.51,44.06 -277.29,106.4 -111.77,62.34 -193.45,115 -245.04,157.99l70.94 51.58c38.69,-34.39 108.55,-80.61 209.58,-138.64 101.02,-58.04 183.78,-95.66 248.26,-112.85l-6.45 -64.49zm-270.83 251.49c-55.89,21.5 -94.59,47.3 -116.08,77.38l128.98 64.49 109.62 -77.38 -122.52 -64.49zm-315.98 -122.52c-8.6,25.8 -6.45,62.34 6.45,109.62 81.68,-55.88 126.82,-88.13 135.42,-96.72 -4.3,-8.6 -24.72,-13.98 -61.26,-16.13 -36.53,-2.14 -63.41,-1.07 -80.6,3.22zm277.28 -58.03c-103.18,-55.89 -195.6,-83.83 -277.28,-83.83 -107.48,0 -206.35,56.96 -296.63,170.89 -90.28,113.92 -133.26,224.62 -128.97,332.1 0,77.37 8.6,128.97 25.79,154.76 4.31,12.9 12.9,20.42 25.79,22.57 12.91,2.15 23.65,-1.07 32.25,-9.67 34.39,-21.5 87.05,-56.96 157.98,-106.4 70.94,-49.44 132.19,-89.2 183.79,-119.3l-90.28 -58.03c-60.18,51.58 -128.97,96.72 -206.35,135.42 -17.19,12.9 -30.1,12.9 -38.69,0 -8.6,-12.9 -8.6,-32.25 0,-58.04 38.69,-171.96 103.18,-283.73 193.45,-335.32 124.67,-60.18 238.6,-60.18 341.77,0l77.38 -45.14zm-180.55 -374.01c-176.27,47.29 -331.03,160.14 -464.3,338.54 -133.26,178.4 -199.89,375.08 -199.89,590.03 0,288.03 104.25,530.92 312.74,728.67 208.51,197.75 458.92,296.63 751.25,296.63 176.26,0 356.82,-70.94 541.67,-212.8l-96.73 0c-51.58,38.69 -98.88,58.03 -141.86,58.03 -94.58,-8.59 -148.32,-55.88 -161.22,-141.86l-148.31 45.15c8.6,34.39 -1.07,68.78 -29.02,103.18 -27.94,34.39 -61.26,51.58 -99.95,51.58 -81.68,0 -122.52,-40.84 -122.52,-122.52 0,-38.69 17.19,-74.16 51.58,-106.4 34.39,-32.24 64.49,-54.81 90.28,-67.71 25.79,-12.9 70.94,-32.24 135.42,-58.03 8.6,-4.3 34.39,-10.75 77.38,-19.34l0 -32.25c-68.78,42.99 -169.81,68.78 -303.08,77.38 -116.07,116.07 -227.84,178.41 -335.32,187.01 -47.29,4.3 -89.2,-10.75 -125.74,-45.15 -36.53,-34.39 -52.66,-77.37 -48.36,-128.97 8.6,-47.29 19.34,-88.13 32.24,-122.52 -60.18,-42.99 -111.78,-101.02 -154.76,-174.1 -12.9,-30.1 -4.31,-55.89 25.79,-77.38 210.65,-150.46 371.87,-268.69 483.63,-354.66l-116.07 -58.04c-34.39,25.79 -90.28,63.41 -167.66,112.85 -77.38,49.44 -146.17,93.5 -206.35,132.19 -42.99,25.8 -75.23,23.65 -96.73,-6.45 -73.08,-90.27 -77.38,-221.39 -12.9,-393.35 55.89,-137.57 156.91,-242.9 303.08,-315.98 8.59,-25.79 47.29,-63.41 116.07,-112.85 68.78,-49.44 113.92,-76.3 135.42,-80.61 -12.9,-4.3 -21.5,-13.97 -25.79,-29.02 -4.31,-15.05 -4.31,-29.02 0,-41.91l0 -19.34zm-290.19 535.22c-51.58,64.49 -81.68,118.22 -90.28,161.22 -4.3,21.5 -1.07,35.46 9.67,41.91 10.75,6.45 20.42,5.38 29.03,-3.22 12.9,-4.3 53.74,-32.24 122.52,-83.83 -38.7,-38.69 -62.34,-77.37 -70.94,-116.07zm51.58 -58.03c0,30.09 6.46,56.96 19.35,80.61 12.9,23.64 24.72,42.98 35.46,58.03 10.74,15.05 30.1,31.17 58.03,48.36 27.94,17.2 49.44,29.03 64.49,35.47 15.05,6.45 44.06,18.27 87.06,35.46 42.99,17.2 73.08,30.1 90.28,38.69l64.48 -45.14c-17.19,-8.6 -42.99,-20.42 -77.38,-35.46 -34.38,-15.05 -60.18,-25.8 -77.37,-32.25 -17.2,-6.45 -38.7,-17.19 -64.49,-32.24 -25.79,-15.05 -45.14,-27.94 -58.03,-38.69 -12.9,-10.75 -25.8,-23.65 -38.7,-38.7 -12.9,-15.04 -21.49,-32.24 -25.79,-51.58 -4.3,-19.34 -4.3,-39.77 0,-61.26l-77.38 38.7zm638.4 154.76c-326.72,232.14 -584.66,419.15 -773.82,561.02 -21.5,12.9 -27.94,32.24 -19.34,58.04 25.79,47.29 68.78,85.98 128.97,116.07 51.59,-68.78 79.54,-105.33 83.83,-109.62 -12.9,-34.39 -6.45,-62.34 19.34,-83.83 245.04,-202.05 459.99,-367.56 644.85,-496.53l-83.83 -45.15zm6.45 154.77l103.18 45.14 109.62 -96.73 -90.28 -45.14 -122.52 96.73zm541.67 -238.6c-60.18,30.1 -135.42,79.54 -225.7,148.32 -90.28,68.78 -146.17,120.37 -167.67,154.76l70.94 32.24c25.79,-34.39 76.3,-81.68 151.54,-141.86 75.23,-60.18 132.2,-96.73 170.89,-109.62l0 -83.83zm-187.01 257.95c-47.29,38.69 -79.53,70.93 -96.73,96.73 12.91,8.59 33.32,20.42 61.26,35.46 27.94,15.05 48.36,24.72 61.26,29.02l77.37 -96.73c-30.09,-34.39 -64.48,-55.89 -103.18,-64.48zm45.15 -38.7c124.66,68.78 216.02,134.34 274.06,196.68 58.04,62.34 99.95,149.39 125.74,261.16 17.2,60.19 25.79,90.28 25.79,90.28 8.6,4.31 15.05,-27.94 19.35,-96.73 8.59,-90.27 -42.99,-197.75 -154.77,-322.41 -60.18,-68.78 -137.57,-126.83 -232.14,-174.11l-58.03 45.14zm-509.43 96.73c223.54,94.58 356.82,161.22 399.81,199.9l51.58 -58.04c-4.3,-12.9 -38.69,-35.46 -103.18,-67.7 -64.48,-32.24 -126.82,-61.26 -187,-87.06l-90.28 -38.69 -70.94 51.58zm-32.24 32.25c-120.37,73.08 -242.9,163.36 -367.56,270.83 -21.5,21.5 -30.1,32.24 -25.8,32.24 4.31,0 12.91,-4.3 25.8,-12.9 146.16,-85.98 281.57,-126.82 406.25,-122.52l90.28 -103.18 -128.97 -64.48zm-58.04 283.73l58.04 -70.94c-150.46,0 -279.43,53.75 -386.91,161.22 -55.88,51.58 -99.94,113.92 -132.19,187 -32.24,73.09 -24.72,135.43 22.58,187.01 103.17,73.08 221.39,34.39 354.66,-116.07l-96.73 -6.45c-25.79,30.1 -62.34,51.59 -109.62,64.49 -47.29,17.19 -76.31,11.81 -87.06,-16.13 -10.74,-27.93 -5.38,-63.41 16.12,-106.39 64.49,-146.17 184.86,-240.74 361.11,-283.74zm225.7 -206.35c-42.98,42.99 -98.87,111.78 -167.66,206.35 -68.78,94.58 -107.47,156.91 -116.07,187.01l103.18 -12.9c17.19,-30.1 105.32,-146.17 264.38,-348.23l-83.83 -32.24zm-264.38 264.39c-30.1,0 -66.63,13.97 -109.62,41.91 -42.99,27.94 -66.63,50.51 -70.94,67.71l103.18 12.9c42.99,-64.49 68.78,-105.33 77.38,-122.52zm393.36 -206.35c-30.1,21.5 -49.44,40.84 -58.04,58.03 42.99,21.5 73.08,49.44 90.28,83.83 42.99,-34.39 68.78,-60.18 77.37,-77.38 -55.88,-38.69 -92.42,-60.18 -109.61,-64.48zm51.58 167.66l25.79 77.38c25.79,-17.2 67.71,-53.74 125.74,-109.62 58.04,-55.89 108.55,-109.62 151.55,-161.22l64.48 -70.93 -64.48 -45.15c-17.2,25.8 -66.64,80.61 -148.32,164.44 -81.68,83.83 -133.26,132.19 -154.76,145.09zm-664.19 180.56c-25.79,25.79 -42.99,53.74 -51.58,83.83 249.34,51.58 447.09,32.24 593.26,-58.04 4.3,-25.79 -2.15,-49.44 -19.34,-70.94 -68.78,34.39 -153.69,55.89 -254.72,64.49 -101.02,8.6 -190.22,2.15 -267.61,-19.34zm444.94 -161.22l-77.38 109.62c17.2,0 34.39,-2.14 51.59,-6.45 17.19,-4.3 33.31,-10.74 48.36,-19.34 15.05,-8.6 24.72,-12.9 29.02,-12.9l-51.58 -70.94zm38.69 -38.69c77.38,77.38 116.07,174.11 116.07,290.19l77.38 -32.25c-8.6,-163.36 -58.03,-268.68 -148.31,-315.97l-45.15 58.03zm-483.63 335.32c-25.79,-8.6 -45.14,-12.9 -58.03,-12.9 -25.8,34.39 -25.8,51.58 0,51.58l58.03 -38.69zm709.33 -180.56l12.9 77.38c42.99,-17.19 78.47,-47.29 106.4,-90.28 27.94,-42.98 35.47,-83.82 22.58,-122.52l-141.87 135.42zm180.56 -180.55c4.3,17.19 6.45,40.84 6.45,70.93 -4.3,77.38 -34.39,136.5 -90.28,177.34 -55.89,40.84 -137.57,80.61 -245.04,119.3 -12.9,4.3 -33.32,11.82 -61.26,22.57 -27.94,10.75 -50.52,18.27 -67.71,22.57 -17.2,4.31 -37.62,11.82 -61.26,22.58 -23.64,10.74 -41.91,20.42 -54.81,29.02 -12.9,8.6 -26.87,18.27 -41.91,29.02 -15.05,10.75 -25.8,22.57 -32.25,35.46 -6.45,12.91 -9.67,27.94 -9.67,45.15 0,21.5 7.53,41.91 22.57,61.26 15.05,19.35 33.32,29.03 54.82,29.03 55.89,0 83.83,-25.8 83.83,-77.38 0,-17.2 -12.91,-30.1 -38.7,-38.69 -4.3,0 -19.34,4.3 -45.14,12.9l-12.9 -19.34c25.79,-12.91 45.14,-19.35 58.03,-19.35 137.57,-30.09 240.74,-64.48 309.53,-103.17 77.38,-42.99 132.19,-76.31 164.43,-99.95 32.25,-23.65 66.64,-59.11 103.18,-106.4 36.54,-47.29 54.82,-98.88 54.82,-154.77 0,-34.39 -15.05,-73.08 -45.15,-116.07l-51.58 58.04zm96.73 -96.73c30.09,51.58 41.91,109.62 35.46,174.1 -6.45,64.49 -18.27,116.08 -35.46,154.77 85.98,-64.49 133.26,-107.47 141.86,-128.97 17.2,-47.29 36.54,-45.15 58.04,6.45l19.34 90.28c0,8.59 -1.08,20.42 -3.22,35.46 -2.15,15.05 -3.22,26.86 -3.22,35.46 -4.31,38.7 0,42.99 12.9,12.9 0,-8.59 2.15,-19.34 6.45,-32.24 4.3,-8.6 6.45,-15.05 6.45,-19.34 30.1,-159.06 -21.5,-300.93 -154.76,-425.6l-83.83 96.73zm-290.19 548.12l-51.58 19.34c-12.9,85.98 23.64,128.97 109.62,128.97 68.78,0 133.26,-51.58 193.45,-154.76 -8.59,8.59 -25.79,27.94 -51.58,58.03 -25.79,30.1 -46.22,50.51 -61.26,61.26 -15.04,10.74 -33.31,16.12 -54.81,16.12 -25.79,0 -47.29,-13.98 -64.49,-41.91 -17.19,-27.94 -23.64,-56.97 -19.34,-87.06zm58.04 58.03c8.6,-51.58 21.5,-85.98 38.69,-103.18l-25.79 6.45c-8.6,12.91 -13.98,26.87 -16.12,41.92 -2.15,15.05 -3.22,29.02 -3.22,41.91l6.45 12.9zm348.22 -270.83c21.5,-21.5 32.24,-27.94 32.24,-19.34l-12.9 32.24c-85.98,116.07 -148.31,210.65 -187.01,283.74 77.38,0 133.27,-27.94 167.67,-83.83 25.79,-34.39 47.29,-122.52 64.48,-264.39 4.31,-21.49 3.22,-33.31 -3.22,-35.46 -6.45,-2.15 -18.26,5.38 -35.46,22.57 -68.78,68.78 -165.51,146.17 -290.18,232.14 -17.2,12.91 -27.94,32.25 -32.25,58.04 -4.3,25.79 4.31,42.99 25.79,51.58 120.38,-120.37 210.66,-212.8 270.84,-277.28zm-5377.49 -2605.8c0,-312.37 7.56,-486.17 22.68,-521.44 -5.04,5.04 -30.23,-2.52 -75.57,-22.68 -120.91,-60.45 -188.93,-143.58 -204.04,-249.39 -10.08,-20.15 -20.16,-37.78 -30.23,-52.89 -110.84,-55.42 -168.78,-133.51 -173.82,-234.27 -10.08,-70.54 2.52,-136.03 37.78,-196.48 35.27,-60.46 85.65,-93.21 151.14,-98.25 25.2,-5.04 62.98,7.56 113.35,37.78 10.08,5.04 20.16,2.52 30.24,-7.56 0,-15.11 13.85,-30.23 41.56,-45.34 27.71,-15.11 41.55,-27.71 41.55,-37.78 5.04,-20.15 -10.07,-62.97 -45.33,-128.46 0,-10.08 -2.52,-20.16 -7.56,-30.24 -5.04,-10.07 -10.08,-20.15 -15.12,-30.23 -5.04,-10.08 -10.08,-20.15 -15.11,-30.23 -40.3,-15.12 -62.98,-42.82 -68.02,-83.13 0,-10.08 2.52,-22.68 7.56,-37.78 5.04,-15.12 5.04,-27.71 0,-37.78 0,-10.08 -3.78,-22.68 -11.34,-37.78 -7.55,-15.12 -11.33,-25.2 -11.33,-30.23 -5.04,-25.2 3.78,-46.6 26.45,-64.24 22.67,-17.63 49.12,-28.97 79.35,-34.01 15.12,0 34.01,0 56.68,0 22.67,0 41.56,0 56.67,0 25.2,0 32.75,-7.56 22.68,-22.67 0,-50.38 42.82,-83.13 128.46,-98.25 95.73,-10.08 294.73,25.19 597.01,105.8 25.2,5.04 47.86,2.52 68.02,-7.55 60.45,-60.46 118.39,-93.21 173.81,-98.25 125.95,-10.08 188.93,32.75 188.93,128.47 5.04,60.45 -37.78,125.95 -128.47,196.48 -65.49,115.87 -122.17,333.77 -170.04,653.69 -47.86,319.91 -71.79,638.57 -71.79,955.97 0,453.42 45.34,780.89 136.03,982.41 136.02,287.17 345.1,430.75 627.23,430.75 176.33,0 312.36,-52.89 408.08,-158.7 -201.52,-498.76 -299.77,-881.66 -294.73,-1148.67 0,-307.32 5.04,-478.61 15.12,-513.88 -5.04,5.04 -30.24,-2.52 -75.57,-22.68 -120.91,-60.45 -188.93,-143.58 -204.04,-249.38 -5.04,-20.16 -15.12,-37.78 -30.24,-52.9 -110.83,-55.42 -168.77,-133.51 -173.81,-234.27 -10.08,-70.53 2.52,-136.03 37.78,-196.48 35.27,-60.46 85.65,-93.21 151.14,-98.25 25.19,-5.04 62.97,7.56 113.35,37.78 10.08,5.04 20.16,2.52 30.23,-7.56 0,-15.11 3.78,-30.23 11.34,-45.33 7.56,-15.12 11.34,-30.24 11.34,-45.34 5.04,-20.16 -10.08,-62.98 -45.34,-128.47 0,-10.08 -2.52,-20.16 -7.56,-30.23 -5.04,-10.08 -10.08,-20.16 -15.11,-30.24 -5.04,-10.07 -10.08,-20.15 -15.12,-30.23 -40.3,-15.11 -62.97,-42.82 -68.01,-83.13 -5.04,-10.08 -5.04,-22.67 0,-37.78 5.04,-15.11 7.55,-27.71 7.55,-37.78 0,-10.08 -3.77,-21.41 -11.33,-34.01 -7.56,-12.6 -11.34,-23.93 -11.34,-34.01 -5.04,-25.2 3.78,-46.6 26.45,-64.24 22.68,-17.63 49.12,-28.97 79.35,-34.01 15.12,-5.04 34.02,-5.04 56.68,0 22.67,5.04 41.56,5.04 56.68,0 20.15,0 27.71,-7.56 22.67,-22.67 0,-50.38 42.82,-83.13 128.47,-98.25 95.72,-10.07 294.72,25.2 597.01,105.81 25.19,5.04 47.86,2.52 68.01,-7.56 60.46,-60.46 118.39,-93.21 173.82,-98.25 120.91,-10.07 183.88,32.75 188.92,128.47 5.04,30.23 -3.78,59.2 -26.45,86.91 -22.68,27.71 -44.08,49.12 -64.24,64.23 -20.15,15.12 -50.37,34.01 -90.68,56.68 -40.3,22.67 -62.98,36.52 -68.02,41.56 -25.19,15.11 -30.23,40.3 -15.11,75.57 40.3,65.49 62.97,125.95 68.01,181.36 5.04,20.16 7.56,47.86 7.56,83.13 25.19,-45.34 60.45,-73.05 105.8,-83.13 55.42,-5.03 103.29,11.34 143.59,49.12 40.3,37.78 62.97,86.91 68.01,147.37 15.11,120.9 -37.78,231.75 -158.7,332.5 -25.2,25.2 -40.3,47.86 -45.34,68.01 -40.3,95.73 -84.39,175.08 -132.25,238.06 -47.86,62.97 -96.98,91.94 -147.36,86.9 -5.04,35.27 -7.56,166.26 -7.56,392.97 0,55.41 0,157.44 0,306.06 0,148.62 0,243.09 0,283.39 0,40.3 1.26,109.57 3.78,207.82 2.52,98.24 7.56,170.03 15.12,215.37 7.55,45.34 18.89,99.51 34.01,162.48 15.11,62.98 32.75,122.17 52.89,177.6 60.46,161.22 183.89,241.83 370.3,241.83 166.26,0 313.62,-49.12 442.09,-147.37 128.47,-98.24 230.49,-229.23 306.06,-392.96 75.58,-163.74 134.77,-336.28 177.6,-517.66 42.82,-181.36 69.27,-372.82 79.35,-574.34 15.12,-216.63 -20.15,-478.61 -105.8,-785.93 -25.2,85.65 -71.79,156.18 -139.81,211.6 -68.01,55.41 -147.36,83.13 -238.05,83.13 -110.83,0 -202.78,-39.04 -275.83,-117.13 -73.05,-78.09 -109.57,-172.56 -109.57,-283.39 0,-115.87 42.82,-211.6 128.47,-287.17 85.64,-75.57 188.92,-113.35 309.84,-113.35 317.4,0 549.14,129.73 695.24,389.19 146.11,259.46 219.16,570.56 219.16,933.3 0,468.53 -130.99,914.4 -392.96,1337.59 -85.65,136.03 -236.79,255.68 -453.43,358.96 -216.63,103.29 -425.71,154.92 -627.23,154.92 -297.25,0 -566.78,-123.43 -808.61,-370.29 -236.79,236.79 -483.65,355.18 -740.59,355.18 -448.39,0 -792.24,-159.96 -1031.55,-479.87 -239.31,-319.92 -358.96,-704.07 -358.96,-1152.45zm2456.05 -989.98c-15.12,95.73 -6.3,152.41 26.45,170.04 32.75,17.64 74.31,-18.89 124.69,-109.57 -75.57,-15.12 -125.95,-35.27 -151.14,-60.46zm143.58 -332.5l-22.67 68.01c40.3,50.38 62.97,108.31 68.01,173.82 15.12,105.8 -15.11,199 -90.69,279.61 -25.19,20.15 -50.37,25.19 -75.57,15.11 -25.19,-10.07 -42.82,-30.23 -52.89,-60.45 -10.08,-40.3 -7.56,-93.21 7.55,-158.7l-52.89 -37.78c-30.23,60.45 -42.82,118.39 -37.78,173.81 10.08,90.69 32.75,163.74 68.01,219.16 30.23,50.38 65.49,55.41 105.8,15.11 65.5,-45.33 118.39,-109.57 158.7,-192.7 40.3,-83.13 55.42,-159.96 45.34,-230.49 -15.11,-100.76 -55.41,-188.92 -120.91,-264.49zm-219.15 -181.37c65.49,20.16 100.76,30.23 105.8,30.23 5.04,-25.19 2.52,-55.41 -7.56,-90.68 -10.07,-35.27 -25.19,-55.42 -45.34,-60.46l-52.89 120.91zm302.28 241.83c40.3,30.23 60.46,80.61 60.46,151.14 75.57,-45.33 85.65,-118.39 30.23,-219.15 0,25.19 -30.23,47.86 -90.69,68.01zm-158.7 151.14c25.2,20.16 55.42,30.24 90.69,30.24 0,-55.42 -15.12,-98.25 -45.34,-128.47l-45.34 98.24zm-90.69 -98.24c15.12,-45.34 22.68,-80.61 22.68,-105.8 -35.27,-30.24 -52.9,-22.68 -52.9,22.67 0,25.19 10.08,52.9 30.23,83.13zm37.79 -136.03l15.11 -68.01c-35.27,-25.19 -60.45,-40.3 -75.57,-45.34 -50.38,-20.15 -88.17,-20.15 -113.35,0 -25.19,20.16 -35.27,57.94 -30.23,113.35 30.23,206.56 146.1,335.03 347.62,385.42l15.12 -75.57c-161.22,-45.34 -249.39,-128.47 -264.5,-249.39 0,-50.38 15.12,-75.57 45.34,-75.57 15.12,-5.04 35.27,0 60.46,15.11zm287.16 279.61l0 68.02c40.3,-20.16 78.09,-62.98 113.36,-128.47 35.27,-65.5 50.37,-128.47 45.33,-188.92 -10.07,-45.34 -31.49,-85.65 -64.23,-120.91 -32.75,-35.27 -71.79,-50.38 -117.13,-45.34 -30.23,5.04 -55.42,20.15 -75.57,45.34 -20.16,25.19 -27.71,50.37 -22.68,75.57 10.08,40.3 30.24,57.93 60.46,52.89 35.27,-10.07 47.86,-27.71 37.78,-52.89 0,-20.16 -12.6,-35.27 -37.78,-45.34l7.56 -7.56c10.07,0 17.63,0 22.67,0 15.12,0 35.27,16.38 60.46,49.12 25.19,32.75 40.3,64.23 45.33,94.46 10.08,85.65 -15.11,153.67 -75.57,204.04zm-309.84 -105.8l45.34 30.23c120.91,-196.48 113.35,-408.08 -22.67,-634.79 -30.24,10.08 -47.86,15.12 -52.9,15.12 105.8,186.4 115.87,382.89 30.23,589.45zm128.47 -831.27c10.08,0 21.41,2.52 34.01,7.56 12.6,5.03 23.93,5.03 34.01,0 40.3,-10.08 50.38,-22.68 30.23,-37.79 -25.19,-25.19 -57.93,-15.11 -98.24,30.24zm-733.04 52.89c10.08,-40.3 30.23,-55.41 60.46,-45.33 40.3,10.07 42.82,37.78 7.56,83.12 15.11,5.04 40.3,2.52 75.57,-7.55 25.19,-5.04 30.23,-17.64 15.11,-37.78 -30.23,-55.42 -65.49,-80.61 -105.8,-75.58 -50.38,0 -73.05,17.64 -68.01,52.9 0,10.08 5.03,20.16 15.11,30.23zm-45.34 22.68c-5.04,-15.12 -7.55,-32.75 -7.55,-52.9 5.03,-50.38 35.27,-80.61 90.68,-90.69 45.34,-5.03 98.25,27.72 158.7,98.25 10.08,15.12 22.68,27.71 37.78,37.78 15.12,10.08 31.5,18.9 49.12,26.45 17.64,7.56 31.49,13.86 41.56,18.9 -15.12,-35.27 -7.56,-66.75 22.68,-94.47 30.23,-27.71 75.57,-36.52 136.02,-26.45 -100.76,-40.3 -224.19,-70.53 -370.3,-90.69 -15.11,0 -35.27,-2.52 -60.45,-7.56 -25.19,-5.04 -42.82,-7.55 -52.9,-7.55 -95.72,10.07 -148.62,47.85 -158.7,113.35 5.04,5.04 15.12,12.59 30.23,22.67 15.12,10.08 31.5,20.16 49.12,30.23 17.64,10.08 28.97,17.64 34.01,22.68zm665.03 -98.25l68.01 22.68c60.46,-50.38 93.21,-75.57 98.25,-75.57 65.49,0 100.76,17.63 105.8,52.89 0,30.24 -27.71,52.9 -83.13,68.02 -30.23,5.03 -70.53,3.77 -120.91,-3.78 -50.38,-7.56 -93.21,-11.34 -128.47,-11.34 25.2,10.08 40.3,27.71 45.34,52.9 0,30.23 -12.6,45.34 -37.78,45.34 -30.23,10.07 -45.34,7.55 -45.34,-7.56 -5.04,-15.12 0,-22.68 15.12,-22.68 0,10.08 5.04,15.12 15.11,15.12 20.16,0 30.24,-12.6 30.24,-37.78 0,-25.2 -27.72,-42.82 -83.13,-52.9 -25.2,-10.08 -54.16,-12.6 -86.91,-7.56 -32.75,5.04 -46.6,25.2 -41.56,60.46 5.04,40.3 35.27,73.05 90.69,98.24 55.41,25.2 113.35,32.76 173.81,22.68 85.65,-10.08 157.44,-36.52 215.38,-79.35 57.94,-42.82 84.39,-91.95 79.35,-147.37 -10.08,-65.49 -62.97,-93.2 -158.7,-83.12 -35.27,5.03 -85.65,35.27 -151.14,90.68zm-853.95 120.91c-15.12,40.3 -37.78,60.46 -68.01,60.46 -20.16,5.04 -42.82,2.52 -68.01,-7.56 0,5.04 -2.52,13.86 -7.56,26.45 -5.04,12.6 -5.04,23.94 0,34.01 10.07,40.3 32.75,57.94 68.01,52.9 30.23,0 73.05,-11.34 128.47,-34.01 55.41,-22.67 103.28,-36.52 143.58,-41.56 151.14,-15.12 274.57,-7.56 370.3,22.67 45.34,10.08 45.34,27.72 0,52.9 -30.23,10.08 -65.49,15.12 -105.8,15.12 -40.3,0 -65.5,0 -75.58,0 -151.14,25.19 -251.89,90.68 -302.28,196.48 -20.15,30.23 -17.64,45.34 7.56,45.34 30.23,-10.08 55.41,-25.2 75.57,-45.34 55.42,-65.5 128.47,-103.29 219.15,-113.35 40.3,-5.04 93.21,-2.52 158.7,7.55 65.5,10.08 113.36,15.12 143.59,15.12 30.23,-5.04 56.67,-16.38 79.35,-34.01 22.67,-17.64 31.49,-39.04 26.45,-64.23 -5.04,-35.27 -35.27,-62.98 -90.68,-83.13 -50.38,-15.12 -120.91,-42.82 -211.6,-83.13 -10.08,-5.04 -45.34,-7.56 -105.81,-7.56 -120.91,10.08 -201.52,2.52 -241.82,-22.68 -95.73,-60.45 -171.3,-85.64 -226.72,-75.57 -45.34,0 -68.01,20.16 -68.01,60.46 0,40.3 27.71,60.45 83.13,60.45 10.08,0 32.75,-12.59 68.01,-37.78zm355.18 151.14c-35.27,-10.07 -73.05,-12.59 -113.35,-7.55 -100.76,10.07 -176.34,78.09 -226.71,204.04 -50.38,125.94 -68.02,254.41 -52.9,385.41 5.04,40.3 22.67,85.65 52.9,136.03l60.45 -52.9c-25.19,-40.3 -42.82,-90.69 -52.89,-151.14 -15.12,-120.91 6.29,-231.76 64.23,-332.51 57.93,-100.77 147.36,-161.22 268.27,-181.37zm-415.63 52.9l30.23 75.57 30.23 -90.68c-10.08,-5.04 -18.89,-6.3 -26.45,-3.78 -7.56,2.52 -16.38,6.29 -26.46,11.33l-7.55 7.56zm-60.46 498.77c-45.34,0 -78.09,-22.68 -98.24,-68.02 -30.24,30.24 -46.6,65.5 -49.12,105.81 -2.52,40.3 3.78,75.57 18.89,105.8 15.12,30.23 32.76,45.34 52.9,45.34 0,-25.19 8.82,-60.46 26.45,-105.8 17.64,-45.34 34.02,-73.06 49.12,-83.13zm83.13 136.02c-15.12,20.16 -25.19,42.82 -30.23,68.02l45.34 -15.12 -15.12 -52.9zm128.47 -52.89c50.38,-70.54 60.45,-110.84 30.23,-120.91 -20.15,-5.04 -42.82,10.07 -68.01,45.33l37.78 75.58zm-158.7 249.38c10.08,50.38 28.97,84.39 56.67,102.03 27.72,17.63 49.12,13.85 64.24,-11.34 15.11,-25.19 15.11,-65.49 0,-120.91 -60.46,35.27 -100.77,45.34 -120.91,30.23zm-136.03 -45.34l0 -52.89c-60.45,-40.3 -93.2,-90.69 -98.24,-151.14 -5.04,-55.42 15.11,-109.58 60.45,-162.48 45.34,-52.9 85.65,-74.31 120.91,-64.24 -5.04,5.04 -15.11,10.08 -30.23,15.12 -15.12,5.04 -25.19,10.08 -30.23,15.12 -5.04,5.03 -7.56,12.59 -7.56,22.67 10.08,35.27 32.75,52.9 68.01,52.9 40.3,-10.08 55.42,-37.78 45.34,-83.13 0,-20.16 -12.6,-39.04 -37.78,-56.68 -25.19,-17.63 -52.9,-23.93 -83.13,-18.89 -55.42,5.03 -98.25,35.27 -128.47,90.68 -30.23,55.42 -40.3,115.87 -30.23,181.37 5.04,95.72 55.42,166.26 151.14,211.59zm249.39 -400.51l7.56 75.57c10.08,-5.04 20.15,-10.08 30.23,-15.12 10.08,-5.04 17.64,-10.08 22.67,-15.12 35.27,-15.11 52.9,0 52.9,45.34 15.12,105.81 -60.45,193.96 -226.71,264.5l-7.56 60.45c105.8,-15.12 191.44,-64.23 256.94,-147.36 65.49,-83.13 90.68,-177.6 75.57,-283.39 0,-55.42 -27.72,-75.57 -83.13,-60.46 -30.23,5.04 -73.05,30.24 -128.47,75.58zm-105.8 204.03l-15.12 -98.24c-70.53,80.61 -103.28,176.33 -98.25,287.17 25.2,181.36 125.95,294.72 302.29,340.06 30.23,-40.3 51.64,-99.5 64.23,-177.59 12.6,-78.09 6.3,-149.89 -18.89,-215.38l-83.13 60.45c0,5.04 1.26,34.02 3.78,86.91 2.52,52.9 -3.78,79.35 -18.9,79.35 -25.19,35.27 -60.45,35.27 -105.8,0 -45.34,-35.27 -70.53,-75.57 -75.57,-120.91 -15.12,-80.61 0,-161.22 45.34,-241.83zm-597.01 -838.83c10.07,0 21.41,2.52 34.01,7.56 12.59,5.04 23.93,5.04 34.01,0 40.3,-10.08 50.38,-22.67 30.23,-37.78 -30.23,-15.11 -62.97,-5.04 -98.24,30.23zm-733.04 52.9c10.08,-40.3 30.23,-55.42 60.45,-45.34 40.3,10.08 42.82,37.78 7.56,83.13 15.12,5.04 40.3,2.52 75.57,-7.56 25.2,-5.04 30.24,-17.63 15.12,-37.78 -30.23,-55.41 -65.49,-80.61 -105.8,-75.57 -50.38,0 -73.06,17.64 -68.02,52.9 0,10.08 5.04,20.15 15.12,30.23zm-45.34 22.68c-5.04,-15.12 -7.56,-32.76 -7.56,-52.9 5.04,-50.38 35.27,-80.61 90.69,-90.69 45.34,-5.04 98.24,27.71 158.7,98.25 10.08,15.11 22.67,27.71 37.78,37.78 15.12,10.07 31.49,18.89 49.12,26.45 17.63,7.56 31.49,13.86 41.56,18.9 -15.12,-35.27 -7.56,-66.76 22.67,-94.47 30.23,-27.71 75.57,-36.52 136.03,-26.45 -100.77,-40.3 -224.2,-70.54 -370.3,-90.69 -10.08,0 -27.71,-2.52 -52.9,-7.56 -25.19,-5.04 -45.33,-7.56 -60.45,-7.56 -95.73,10.08 -148.62,47.86 -158.7,113.35l113.35 75.58zm665.02 -98.25l68.02 22.67c60.45,-50.37 93.2,-75.57 98.24,-75.57 65.5,0 100.77,17.64 105.81,52.9 0,30.23 -27.72,52.9 -83.13,68.01 -30.24,5.04 -70.54,3.78 -120.91,-3.78 -50.38,-7.55 -93.21,-11.33 -128.47,-11.33 25.19,10.07 40.3,27.71 45.34,52.89 0,30.24 -12.6,45.34 -37.78,45.34 -30.24,10.08 -45.34,7.56 -45.34,-7.56 -10.08,-15.11 -5.04,-22.67 15.11,-22.67 0,10.08 5.04,15.12 15.12,15.12 20.16,0 30.23,-12.6 30.23,-37.78 0,-25.2 -27.71,-42.82 -83.13,-52.9 -25.19,-10.08 -54.15,-12.6 -86.9,-7.56 -32.76,5.04 -46.6,25.19 -41.56,60.46 5.03,40.29 35.27,73.05 90.68,98.24 55.42,25.19 113.36,32.75 173.82,22.67 85.65,-10.07 157.44,-36.52 215.38,-79.35 57.93,-42.81 84.39,-91.94 79.35,-147.36 -10.08,-65.49 -62.98,-93.21 -158.7,-83.13 -35.27,5.04 -85.65,35.27 -151.15,90.69zm-853.94 120.91c-15.12,40.3 -37.78,60.45 -68.02,60.45 -20.15,5.04 -42.81,2.52 -68.01,-7.55 0,5.03 -2.52,13.85 -7.56,26.45 -5.04,12.6 -5.04,23.93 0,34.01 10.08,40.3 32.76,57.94 68.02,52.9 30.23,0 73.05,-11.34 128.46,-34.01 55.42,-22.68 103.29,-36.52 143.59,-41.56 151.14,-15.12 274.57,-7.56 370.3,22.67 45.33,10.08 45.33,27.71 0,52.9 -30.24,10.08 -65.5,15.11 -105.81,15.11 -40.3,0 -65.49,0 -75.57,0 -151.14,25.2 -251.9,90.69 -302.28,196.48 -20.16,30.24 -17.64,45.34 7.55,45.34 35.27,-5.04 60.46,-20.15 75.58,-45.34 55.41,-65.49 128.46,-103.28 219.15,-113.35 40.3,-5.04 93.21,-2.52 158.7,7.56 65.49,10.08 113.35,15.12 143.59,15.12 30.23,-5.04 56.67,-16.38 79.35,-34.01 22.67,-17.64 31.49,-39.04 26.45,-64.24 -5.04,-35.27 -35.27,-62.97 -90.69,-83.13 -45.34,-15.11 -115.87,-42.82 -211.6,-83.13 -10.07,-5.04 -45.33,-7.55 -105.8,-7.55 -120.91,10.07 -201.52,2.51 -241.83,-22.68 -95.72,-60.45 -171.3,-85.65 -226.71,-75.57 -45.34,0 -68.01,20.16 -68.01,60.46 0,40.29 27.71,60.45 83.12,60.45 10.08,0 32.76,-12.6 68.02,-37.78zm355.18 151.14c-35.27,-10.08 -73.05,-12.6 -113.35,-7.56 -100.77,10.08 -186.41,79.35 -256.94,207.82 -70.53,128.47 -98.24,253.16 -83.13,374.08 5.04,40.3 22.68,85.65 52.9,136.02l60.45 -52.89c-25.19,-40.3 -42.82,-90.69 -52.89,-151.15 -15.12,-115.87 15.11,-224.19 90.68,-324.94 75.58,-100.77 176.34,-161.22 302.29,-181.37zm-415.64 52.9l30.23 75.57 30.24 -90.69c-10.08,-5.04 -18.9,-6.3 -26.46,-3.78 -7.55,2.52 -13.85,6.3 -18.89,11.34l-15.12 7.56zm-120.91 491.21c-40.3,0 -73.05,-22.68 -98.24,-68.02 -30.24,30.23 -46.6,65.5 -49.12,105.81 -2.52,40.3 3.78,75.57 18.89,105.8 15.12,30.23 32.76,45.34 52.9,45.34 0,-25.2 8.82,-60.46 26.46,-105.81 17.63,-45.33 34.01,-73.05 49.11,-83.12zm83.13 136.02c-15.11,20.16 -25.19,42.82 -30.23,68.01l45.34 -15.11 -15.12 -52.9zm128.47 -52.9c50.38,-70.53 60.45,-110.83 30.23,-120.91 -20.15,-5.03 -42.82,10.08 -68.01,45.34l37.78 75.57zm-158.7 249.39c10.08,50.38 28.97,84.39 56.68,102.03 27.71,17.63 49.11,13.85 64.23,-11.34 15.12,-25.19 15.12,-65.49 0,-120.91 -60.46,35.27 -100.77,45.34 -120.91,30.23zm-136.03 -45.34l0 -52.89c-60.45,-40.3 -93.2,-90.69 -98.24,-151.15 -5.04,-55.41 15.11,-109.57 60.45,-162.47 45.34,-52.9 85.65,-74.32 120.91,-64.24 -5.04,5.04 -15.11,10.08 -30.23,15.12 -25.19,10.08 -37.78,22.67 -37.78,37.78 10.08,35.27 32.75,52.89 68.01,52.89 40.3,-10.07 55.42,-37.78 45.34,-83.12 0,-20.16 -12.6,-39.04 -37.78,-56.68 -25.19,-17.64 -52.9,-23.93 -83.13,-18.9 -55.41,5.04 -98.24,35.27 -128.47,90.69 -30.23,55.42 -40.3,115.87 -30.23,181.37 5.04,95.72 55.42,166.25 151.14,211.59zm249.39 -400.52l7.56 75.57c10.08,-5.03 18.89,-10.07 26.45,-15.11 7.56,-5.04 16.38,-10.08 26.46,-15.12 35.27,-15.11 52.89,0 52.89,45.34 15.12,105.8 -60.45,193.96 -226.71,264.49l-7.56 60.46c105.8,-15.12 191.44,-64.23 256.94,-147.36 65.49,-83.13 90.68,-177.6 75.57,-283.39 0,-55.42 -27.71,-75.57 -83.13,-60.46 -30.23,5.04 -73.05,30.24 -128.47,75.57zm-105.8 204.04l-15.12 -98.24c-70.53,80.61 -103.28,176.33 -98.24,287.17 25.19,181.36 125.94,294.72 302.28,340.06 30.23,-40.3 51.64,-99.5 64.23,-177.6 12.6,-78.09 6.3,-149.88 -18.89,-215.37l-83.13 60.45c0,5.04 1.26,34.02 3.78,86.91 2.52,52.9 -3.78,79.35 -18.9,79.35 -25.19,35.27 -60.45,35.27 -105.8,0 -45.34,-35.27 -70.53,-75.57 -75.57,-120.91 -15.12,-80.61 0,-161.22 45.34,-241.83zm4103.47 -256.93c-115.87,-95.73 -274.57,-143.59 -476.09,-143.59 -100.76,0 -186.4,34.01 -256.94,102.03 -70.53,68.01 -105.8,149.88 -105.8,245.61 0,90.68 31.49,168.77 94.47,234.27 62.97,65.49 139.8,98.24 230.49,98.24 90.69,0 167.52,-34.01 230.49,-102.02 62.98,-68.01 94.47,-147.36 94.47,-238.05 0,-65.5 -20.16,-123.43 -60.46,-173.82 -40.3,-50.38 -95.72,-75.57 -166.25,-75.57 -30.24,0 -57.94,11.34 -83.13,34.01 -25.2,22.68 -37.78,51.64 -37.78,86.91 0,60.45 30.23,90.69 90.68,90.69 35.27,0 52.9,-20.16 52.9,-60.46 0,-25.19 -20.16,-40.3 -60.46,-45.34 15.12,-20.15 35.27,-30.23 60.46,-30.23 40.3,0 74.31,16.38 102.02,49.12 27.72,32.75 41.56,71.79 41.56,117.13 0,70.53 -25.19,128.47 -75.57,173.82 -20.15,-105.81 -60.45,-158.7 -120.91,-158.7 -55.41,0 -83.13,22.67 -83.13,68.01 0,35.27 17.64,52.9 52.9,52.9 30.23,0 47.86,-15.12 52.9,-45.34 15.11,50.37 5.04,89.42 -30.24,117.13 -35.27,27.71 -78.09,41.56 -128.46,41.56 -25.2,0 -55.42,-15.12 -90.69,-45.34 -35.27,-30.23 -57.94,-62.98 -68.01,-98.25 120.91,15.12 181.36,-17.63 181.36,-98.24 0,-55.42 -25.19,-83.13 -75.57,-83.13 -30.23,0 -45.34,10.08 -45.34,30.23 0,10.08 7.56,20.16 22.68,30.23 10.07,5.04 17.63,10.08 22.67,15.12 -55.42,10.08 -83.13,-12.6 -83.13,-68.01 0,-55.42 34.01,-104.55 102.03,-147.37 68.01,-42.82 137.28,-64.23 207.81,-64.23 141.07,0 277.09,30.23 408.08,90.69z"/>
 </g>
</svg>
