<?xml version="1.0" encoding="UTF-8"?>
<!DOCTYPE svg PUBLIC "-//W3C//DTD SVG 1.1//EN" "http://www.w3.org/Graphics/SVG/1.1/DTD/svg11.dtd">
<!-- Creator: CorelDRAW 2018 (64 Bit) -->
<svg xmlns="http://www.w3.org/2000/svg" xml:space="preserve" width="91.757mm" height="94.2459mm" version="1.1" style="shape-rendering:geometricPrecision; text-rendering:geometricPrecision; image-rendering:optimizeQuality; fill-rule:evenodd; clip-rule:evenodd"
viewBox="0 0 128441.6 131925.57"
 xmlns:xlink="http://www.w3.org/1999/xlink">
 <defs>
  <style type="text/css">
   <![CDATA[
    .fil0 {fill:#334A4A;fill-rule:nonzero}
    .fil2 {fill:#466464;fill-rule:nonzero}
    .fil1 {fill:#AACCCD;fill-rule:nonzero}
   ]]>
  </style>
 </defs>
 <g id="Camada_x0020_1">
  <metadata id="CorelCorpID_0Corel-Layer"/>
  <path class="fil0" d="M60406.34 0l5054.96 0c2387.92,28.98 4755.13,129.9 6944,446.82 8957.33,1297.06 21763.98,5024.87 27598.21,12787.05 2505.51,3333.35 3310.81,3081.94 6227.3,5967.49 1869.44,1849.42 3928.12,5346.96 3743.07,8117.59 -211.65,3178.25 -726.5,3246 991.48,6628.2 1952.44,3844.14 4846.81,6304.85 5795.74,10358.39 624.73,2669 -1040.33,4231.88 -2862.73,4976.02 -5002.05,2042.59 -8293.82,989.38 -12968.46,-1022.7 -3106.02,-1337.37 -7223.54,-4044.45 -10331.66,-5822.48 -870.26,-497.77 -1648.69,-1000.3 -2590.75,-1527.18 -4398.18,-2459.03 -8331.48,-4682.34 -12395.1,-7718.37 -1618.17,-1209.15 -2848.88,-2420.26 -4228.38,-3848.75 -2189.57,-2267.26 -3478.23,-5720.57 -2476.39,-8897.14 358.35,-1136.92 749.03,-1756.05 1252.12,-2707.08 -531.78,141.94 -1280.82,830.36 -1609.35,1241.34 -1565.4,1959.72 -2200.21,3321.73 -2192.93,5884.63 11.34,3735.09 1277.74,6038.74 3176.85,9020.32 1464.61,2299.31 3047.09,3704.72 4176.45,5167.37 448.64,581.06 2553.94,2263.34 2365.94,2840.34 -360.87,1104.16 -2423.9,-479.01 -3540.24,-1032.77 -2402.62,-1191.37 -4944.38,-2428.94 -7465.56,-3462.13 -2591.03,-1061.47 -5125.51,-1989.4 -7877.94,-2891.15 -1770.19,-579.94 -2061.35,-848.7 -2777.35,-2607.41 -1684.66,-4136.41 -6413.61,-5608.45 -10545.83,-5608.45 -1599.69,-2389.04 -4117.8,-6671.73 -4817.28,-9911.3 -718.38,-3326.49 394.46,-5996.75 2731.71,-7853.31 960.54,-763.31 1355.71,-798.45 2064.43,-1261.5 19.18,-12.6 76.57,-20.72 90.57,-67.75 13.72,-47.17 60.47,-44.65 88.89,-69.29 -1437.46,31.92 -4209.2,1812.46 -4950.68,2651.36 -3113.3,3522.88 -2393.1,7718.79 -1087.79,11622.55l2079.27 5364.46c-2113.42,175.82 -4916.38,1997.38 -5859.99,2217.15 -428.06,-286.68 -572.52,-537.8 -1017.52,-883.13 -462.07,-359.19 -524.37,-425.54 -920.37,-821.68 -849.82,-851.08 -3065.85,-2475.69 -4112.06,-3173.07 -2223.03,-1482.25 -4671.42,-2860.63 -7727.75,-2894.23 -3246.7,-35.55 -4628.16,1551.54 -5385.74,1753.95 109.74,-410.98 1466.29,-1868.32 1860.34,-2257.46l5145.11 -4990.57c7023.08,-6255.71 15806.7,-10869.88 24894.63,-13431.94 3478.65,-980.84 9721.76,-2194.33 13460.77,-2284.2zm-57397.05 44503.05c423.72,-153.28 838.34,-641.11 1229.73,-987.42 457.18,-404.26 917.15,-642.51 1460.69,-914.91 5208.1,-2609.23 9464.06,603.45 11725.02,5224.76 532.34,1087.79 859.62,2189.71 1329.53,3421.4 4694.65,12296.7 15424.41,11922.95 16439.13,2781.83 388.86,-3503.98 -2222.89,-3453.87 -4026.67,-4582.81 -5237.22,-3278.34 -6717.51,-8468.94 -3446.03,-14123.58 690.94,-1194.17 2366.64,-3219.4 3479.21,-3964.38 -966.28,-1442.78 -3498.52,-3673.78 -4870.05,-4949.28 -3462.55,-3221.5 -6949.88,-4326.09 -11179.66,-2231.14 -2531.26,1253.66 -3106.3,2418.16 -4570.63,4615.01 -2018.37,3027.35 -3407.26,5551.19 -4984.55,8952.71 -1032.63,2226.66 -2127.56,5803.02 -2585.71,6757.82zm125432.31 17440.97l0 5591.23c-91.69,1963.08 -283.74,3871.29 -586.1,5680.96 -763.45,4569.23 -2206.51,10993.48 -4110.52,15211.08 -802.79,1778.17 -1576.32,3885.57 -2595.65,5639.94 -2797.92,4815.04 -4740.43,8138.59 -8506.87,12398.32 -1828.98,2068.77 -4133.05,4374.66 -6176.62,6176.9l-2252.7 1864.82c-4820.64,3673.78 -8670.09,6172.71 -14573.48,8707.33 -1397.42,600.23 -2416.76,2979.34 -5826.39,5260.03 -1105.98,739.8 -2268.94,1544.54 -3492.93,2050.01 -856.12,353.59 -2908.37,1377.12 -3983.84,1400.92 31.92,-21.98 79.51,-45.91 100.93,-57.25l633.13 -317.34c3803.26,-1732.39 6464.42,-3512.24 9176.68,-6977.45 2573.12,-3287.29 4272.89,-7236.41 5114.46,-12148.32 2760.27,-16112.98 -5538.18,-33216.31 -13820.52,-45687.43l-3625.91 -4926.32c-627.39,-846.18 -1280.4,-1685.5 -1972.32,-2462.11l-3958.36 -4593.73 -8979.45 -8283.75c-477.89,-375.43 -2013.05,-1689.7 -2465.61,-1810.64l8892.52 9162.26c4417.91,5515.92 6361.82,7516.52 10537.85,14485.57 919.81,1535.58 1702.58,3045.55 2576.89,4550.06 410.14,706.34 854.72,1628.81 1221.89,2420.54 4596.95,9920.81 7997.77,20893.58 6213.44,32082.75 -173.44,1087.51 -97.99,1053.49 -1838.78,1803.78 -9138.33,3938.48 -19978.67,4494.2 -28395.12,-1472.31 -2768.11,-1962.52 -5149.31,-4369.34 -7173,-7080.76 -5728.97,-7676.79 -9830.39,-19578.33 -10406.97,-29027.97 -147.4,-2414.38 -279.96,-2465.05 -310.62,-5074.42 -9.38,-817.06 -127.52,-871.8 -165.18,-1576.6 -132.84,-2459.31 303.48,-10558.84 722.44,-13532.58 311.6,-2211.55 553.62,-4095.54 906.93,-6220.02 916.31,-5510.74 1577.58,-7014.69 2647.44,-11606.32 2437.47,567.9 4854.09,944.45 7229.28,1639.87 4945.78,1447.95 8264.29,2294.41 13269.42,4310.27 3071.86,1237.14 4882.09,2175.29 7581.75,3345.81 580.64,251.96 834.98,492.73 1427.94,789.07 9925.57,4960.2 19877.74,13002.76 25597.05,22548.99 5513.96,9203 6911.94,17707.35 2746.83,27435.69 -955.08,2230.86 -2355.59,3805.22 -3265.32,5445.37 -846.74,1527.32 -2165.21,4319.23 -2165.21,6545.19 1675.7,-390.4 8103.45,-5318.83 10098.45,-7164.32l1941.38 -1859.78c461.37,-366.05 485.45,-558.38 904.27,-996.1l2736.47 -2965.06c5150.29,-6648.92 8519.61,-11906.43 11188.05,-21119.93 3165.51,-10929.51 2796.94,-22120.51 -521.43,-33419.15 -863.68,-2941.54 -3193.65,-8050.68 -4641.6,-10562.2l-2859.09 -4743.23c450.18,301.52 364.09,284.72 702.56,723 3032.25,3925.04 3608.97,4627.6 6198.6,9005.06 726.92,1229.03 1261.22,2329.97 1915.63,3628.01 1150.92,2283.78 2389.32,5460.63 3200.37,7885.78 1764.31,5276.41 2913.69,11658.25 3186.93,17896.46zm-128441.6 -178.05c0,11086.99 591.98,15372.2 4176.87,25439.02 1974.98,5544.89 6079.06,12571.62 9881.76,17200.2 2654.86,3231.44 5495.76,6190.06 8698.23,8881.18 973.14,817.62 4744.77,3958.5 5750.67,4227.12l-2411.44 -2656.68c-3513.78,-3996.71 -5982.47,-10418.16 -5982.47,-16189.69 0,-6305.69 2611.19,-11927.71 5338,-15567.47 1682.28,-2246.12 4181.91,-4847.79 6447.63,-6539.17 271.14,-202.55 516.81,-328.11 752.39,-514.29 740.22,-584.14 1470.21,-1405.96 1878.39,-2239.68 1182.41,-2415.78 312.3,-4436.81 312.3,-7447.78 -1577.72,367.59 -2370.42,950.47 -4751.35,950.47 -11428.96,0 -12568.82,-9956.23 -15995.53,-16787.82 -1069.31,-2132.04 -2694.9,-5384.76 -5701.67,-5384.76 -3089.92,0 -5829.47,3498.1 -6810.18,5701.25 -963.76,2165.21 -1583.6,7702.55 -1583.6,10928.11zm59707.14 66358.58c9290.62,0 16535.72,-2746.83 21608.32,-9432.7 1071.83,-1412.4 2976.54,-4682.62 3414.82,-6562.97 -684.64,159.44 -3845.54,1413.52 -6491.58,2060.79 -9354.59,2288.26 -18237.6,334.69 -25115.38,-4821.06l-3115.68 -2585.85c-609.89,-534.3 -814.68,-958.72 -1343.95,-1506.89 -266.38,-275.76 -465.15,-427.78 -714.74,-710.68l-5504.72 -7798.58c-1200.47,879.64 -1775.23,4154.33 -1952.02,5662.34 -403.42,3442.25 1534.18,6921.46 3645.22,9432.14 373.75,444.3 452.98,598.7 879.08,1021.58 3962,3930.08 9613.28,6500.96 15528.98,7276.73 2624.91,343.79 4405.88,242.73 7086.64,211.09 2990.26,-34.86 5494.5,-860.74 6645.42,-956.48l-575.04 375.29c-1104.58,588.2 -3734.11,1454.25 -4903.09,1748.63 -9509.55,2393.94 -19181.62,770.73 -27013.37,-4949.98 -2062.75,-1506.47 -4334.49,-3816.42 -5707.69,-6011.73 -3720.53,-5947.62 -3818.1,-11530.31 -1214.05,-17905.56 1006.74,-2464.63 4041.37,-5400.57 2670.4,-8257.15 -1002.54,233.49 -4713.55,3213.8 -5580.17,4080.28l-3066.13 3902.65c-4170.15,6930.98 -3299.05,14526.44 1075.75,21126.37 5049.92,7618.14 17008.99,14601.75 29742.99,14601.75z"/>
  <path class="fil1" d="M96133.34 23280.8c0,-596.32 104.15,-299.28 158.32,-950.19 2004.38,-466.83 3903.63,-686.46 5743.53,1383.28 1027.73,1155.68 1224.97,1922.77 1224.97,4001.61 -547.88,127.52 -445,195.83 -1104.02,325.73 -504.49,99.39 -779.13,167 -1339.47,71.39 -969.92,-165.46 -1697.96,-432.26 -2310.51,-869.42 -1188.15,-847.58 -2372.8,-2325.77 -2372.8,-3962.42z"/>
  <polygon class="fil2" points="15045.49,22964.17 14887.17,23122.48 "/>
  <polygon class="fil2" points="113237.66,22805.71 113079.2,22647.53 "/>
  <polygon class="fil2" points="113079.2,22647.53 112992.27,22306.96 "/>
  <polygon class="fil2" points="14887.17,23122.48 14728.71,23122.48 14860.99,23307.26 "/>
  <path class="fil2" d="M74435.71 119255.82l47.59 47.03c-3.22,-2.94 -63.13,-31.5 -47.59,-47.03z"/>
  <path class="fil2" d="M44661.51 6809.9l47.31 47.45c-3.22,-3.08 -63.13,-31.64 -47.31,-47.45z"/>
  <polygon class="fil2" points="44028.1,7126.81 44336.9,6944.56 "/>
  <line class="fil2" x1="56222.89" y1="44344.88" x2="56222.89" y2= "44344.88" />
  <polygon class="fil2" points="56381.35,44503.05 56222.89,44344.88 "/>
  <polygon class="fil2" points="56539.53,44661.37 56381.35,44503.05 "/>
  <line class="fil2" x1="94391.01" y1="105635.47" x2="94391.01" y2= "105635.47" />
 </g>
</svg>
